<?xml version="1.0" encoding="UTF-8"?>
<svg id="_レイヤー_2" data-name="レイヤー 2" xmlns="http://www.w3.org/2000/svg" viewBox="0 0 634.22 456.7">
  <defs>
    <style>
      .cls-1 {
        font-family: SourceHanSerif-ExtraLight-83pv-RKSJ-H, 'Source Han Serif';
        font-size: 24px;
        font-weight: 200;
        letter-spacing: .1em;
      }

      .cls-1, .cls-2 {
        fill: #fff;
      }

      .cls-3 {
        font-family: GaramondPremrPro-LtDisp, 'Garamond Premier Pro';
        font-size: 48px;
      }

      .cls-3, .cls-4 {
        fill: #e57a64;
      }

      .cls-5 {
        fill: #a7cdc7;
      }

      .cls-6 {
        fill: none;
        stroke: #a7cdc7;
        stroke-miterlimit: 10;
        stroke-width: 1.35px;
      }

      .cls-7 {
        letter-spacing: .06em;
      }

      .cls-8 {
        letter-spacing: .05em;
      }

      .cls-9 {
        letter-spacing: .05em;
      }
    </style>
  </defs>
  <g id="guide2">
    <g>
      <g>
        <polygon class="cls-2" points="386.91 75.86 210.91 380.7 562.91 380.7 386.91 75.86"/>
        <polygon class="cls-6" points="386.91 75.86 210.91 380.7 562.91 380.7 386.91 75.86"/>
      </g>
      <text class="cls-3" transform="translate(323.24 296.1)"><tspan class="cls-8" x="0" y="0">Des</tspan><tspan class="cls-7" x="70.66" y="0">i</tspan><tspan class="cls-9" x="82.46" y="0">g</tspan><tspan class="cls-8" x="104.11" y="0">n</tspan></text>
      <g>
        <circle class="cls-5" cx="210.91" cy="380.7" r="76"/>
        <text class="cls-1" transform="translate(185.71 393.67)"><tspan x="0" y="0">自分</tspan></text>
      </g>
      <g>
        <circle class="cls-5" cx="558.22" cy="380.7" r="76"/>
        <text class="cls-1" transform="translate(533.02 393.67)"><tspan x="0" y="0">相手</tspan></text>
      </g>
      <g>
        <circle class="cls-5" cx="386.91" cy="76" r="76"/>
        <text class="cls-1" transform="translate(361.71 88.97)"><tspan x="0" y="0">技術</tspan></text>
      </g>
      <g>
        <path class="cls-4" d="M0,293.6c.08-.35.16-.7.25-1.05.03-.13.14-.31.1-.39-.28-.48.08-.78.29-1.12.31-.49.62-.98.94-1.46.1-.16.19-.33.32-.45.97-.9,1.48-2.12,2.26-3.15.65-.87,1.32-1.73,1.98-2.59,1.15-1.51,2.28-3.03,3.46-4.51.59-.74,1.25-1.43,1.92-2.1,1.06-1.06,2.13-2.12,3.25-3.13,1.13-1.02,2.33-1.97,3.46-2.98,1.44-1.28,3.02-2.36,4.63-3.41.77-.5,1.46-1.13,2.2-1.7.73-.56,1.47-1.12,2.21-1.67.59-.44,1.2-.86,1.8-1.29.08-.05.15-.11.23-.15,1.26-.63,2.45-1.4,3.62-2.19.63-.42,1.34-.71,2-1.1,1.31-.77,2.61-1.56,3.92-2.34.12-.07.24-.16.37-.2,1.42-.45,2.69-1.21,3.95-1.99.41-.25.89-.38,1.33-.59,1.4-.67,2.79-1.36,4.19-2.02.81-.38,1.65-.71,2.47-1.08.88-.4,1.74-.85,2.63-1.23,1.13-.48,2.27-.94,3.43-1.34,1.46-.5,2.92-1.01,4.36-1.56,1.25-.47,2.55-.81,3.82-1.23,1.27-.42,2.52-.89,3.79-1.32.48-.16.97-.31,1.46-.44,1.5-.38,3.01-.75,4.51-1.12.22-.06.45-.08.68-.13,1.67-.38,3.34-.76,5-1.14.16-.04.32-.07.48-.07.37,0,.71-.1,1.07-.2.66-.18,1.36-.24,2.05-.33,1.12-.13,2.25-.24,3.37-.36.5-.05,1.01-.11,1.51-.17,1.17-.14,2.33-.28,3.5-.42.14-.02.29-.01.41-.07.91-.38,1.87-.29,2.81-.3.16,0,.33.04.49.01,2.02-.31,4.06,0,6.1-.17,1.26-.1,2.53.05,3.8.07.49,0,.97-.04,1.46-.02,1.34.05,2.68.12,4.02.2,1.48.09,2.95.21,4.43.33.16.01.34.04.47.11.46.27.94.39,1.46.34.05,0,.1,0,.14.01.73.44,1.58.32,2.36.48.75.15,1.49.35,2.22.57,1.08.33,2.16.68,3.23,1.04.26.09.48.26.73.38.2.1.41.24.63.27.99.14,1.88.53,2.68,1.1.75.54,1.46,1.13,2.17,1.73.64.53,1.26,1.09,1.86,1.66.56.52,1.08,1.08,1.42,1.78.06.12.15.24.25.33.56.53.75,1.21.81,1.94.06.71.37,1.38.31,2.11-.04.41.01.83,0,1.24-.05,1.41-.38,2.74-1.1,3.97-.11.19-.16.44-.2.66-.11.62-.43,1.12-.85,1.56-.36.38-.67.8-.82,1.34.41.24.8.17,1.18.08.47-.11.9-.09,1.34.14.23.12.53.15.8.19,1.42.18,2.85.32,4.27.53.94.14,1.85.41,2.78.6.25.05.51.05.76.1.29.06.57.17.86.24.36.08.72.14,1.08.21.36.07.73.13,1.07.24.42.13.82.31,1.23.46,1,.37,1.98.79,3,1.09,1.32.39,2.29,1.26,3.25,2.17.2.19.38.4.55.62.37.5.75,1,1.09,1.52.24.37.44.76.4,1.23-.01.17.07.35.11.53.03.16.09.32.08.47-.08,1.2-.23,2.39-.24,3.59-.01,1.38.1,2.77.15,4.15,0,.09.04.19.03.28-.1,1.03.44,1.81,1,2.58.82,1.11,1.84,1.94,3.19,2.31.65.18,1.3.33,1.95.49.45.11.89.22,1.34.32,1.12.26,2.21-.04,3.3-.23.38-.07.77-.1,1.14-.2.97-.25,1.99-.22,2.92-.67.53-.26,1.16-.3,1.73-.5.78-.27,1.55-.6,2.32-.9.15-.06.31-.08.46-.13.31-.09.64-.14.93-.28,1.34-.63,2.77-1.04,4.03-1.85.95-.61,1.97-1.11,2.95-1.68.25-.15.46-.39.69-.57.22-.17.43-.36.67-.49.57-.31,1.04-.2,1.32.29.26.46.11,1.16-.36,1.41-.38.2-.82.29-1.23.44-.34.12-.7.22-1.02.37-.5.24-.98.51-1.47.77-.47.25-.94.5-1.41.74-.71.37-1.37.87-2.21.95-.02,0-.05,0-.07.02-.97.8-2.25.88-3.34,1.4-.51.25-1.07.55-1.61.57-.8.03-1.4.55-2.15.67-.72.12-1.41.42-2.12.63-.13.04-.27.07-.41.06-.87-.04-1.68.18-2.49.48-.28.1-.64.02-.96.01-.55-.02-1.1-.05-1.65-.08-.12,0-.24,0-.34-.02-1.38-.36-2.79-.64-4.13-1.12-1.52-.55-2.73-1.56-3.44-3.06-.32-.66-.67-1.34-.81-2.06-.19-.94-.28-1.93-.24-2.89.07-1.73.28-3.45.41-5.18.1-1.32-.33-2.46-1.21-3.43-.08-.09-.15-.18-.22-.27-1.09-1.54-2.62-2.4-4.41-2.91-.61-.17-1.18-.52-1.77-.79-.19-.09-.37-.23-.57-.24-1.15-.08-2.18-.61-3.28-.88-.56-.14-1.13-.22-1.7-.33-1.13-.22-2.31-.18-3.41-.61-.19-.07-.41-.06-.61-.08-.97-.08-1.94-.16-2.91-.23-.83-.06-1.66-.07-2.49-.16-.72-.08-1.19.3-1.6.79-1.04,1.24-2.03,2.52-3.09,3.75-.63.73-1.36,1.38-2.04,2.07-.2.2-.38.4-.58.6-.15.15-.27.35-.45.42-.79.35-1.27,1.06-1.93,1.56-1.49,1.14-2.71,2.59-4.33,3.57-.26.16-.47.37-.71.55-.54.4-1.08.79-1.62,1.19-.22.16-.45.32-.68.48-.42.28-.85.55-1.28.82-.93.59-1.86,1.19-2.81,1.77-1.13.69-2.26,1.35-3.4,2.02-.28.17-.58.31-.83.5-.89.66-1.96.93-2.93,1.43-.16.08-.36.06-.54.1-.2.04-.43.05-.59.16-.45.32-.96.43-1.47.59-.77.25-1.51.58-2.27.85-.41.14-.84.24-1.27.33-.75.15-1.5.29-2.25.39-.69.09-1.38.16-2.07.16-1.22,0-2.46.05-3.66-.12-1.25-.18-2.47-.59-3.7-.93-.28-.08-.52-.29-.78-.44-.87-.52-1.8-.98-2.6-1.59-1.32-1.02-2.25-2.31-2.26-4.1,0-.83.24-1.58.72-2.2.8-1.04,1.69-2.02,2.54-3.02.07-.09.16-.2.26-.23.73-.15,1.13-.77,1.68-1.18.48-.36,1-.66,1.5-.99.66-.43,1.29-.89,1.97-1.29.49-.29,1.04-.48,1.55-.74.55-.28,1.08-.6,1.62-.89.22-.12.44-.26.67-.35,1.11-.46,2.22-.94,3.34-1.36,1.1-.42,2.22-.79,3.33-1.18.74-.25,1.5-.47,2.24-.74,1.17-.42,2.35-.82,3.59-.98.09-.01.19-.02.27-.06,1.63-.64,3.36-.84,5.07-1.1.84-.13,1.67-.37,2.5-.55.25-.05.5-.08.75-.11.57-.08,1.14-.17,1.71-.25.23-.03.46-.06.69-.08.18-.02.39.03.55-.04,1.15-.47,2.39-.21,3.57-.41.22-.04.46.03.69.04.13,0,.28.03.4,0,1.39-.34,2.81-.25,4.21-.28,1.22-.03,2.45.02,3.68.06.55.02.95-.22,1.21-.67.32-.56.59-1.15.89-1.72.06-.12.11-.28.21-.36.92-.75,1.07-1.92,1.64-2.86-.03-.76.48-1.46.29-2.24-.03-.13-.05-.3,0-.41.42-.86-.03-1.65-.25-2.41-.22-.77-.65-1.47-1-2.21-.04-.08-.07-.18-.14-.24-.9-.76-1.44-1.87-2.49-2.48-.2-.11-.36-.3-.51-.47-.43-.51-.96-.87-1.53-1.17-1.22-.64-2.41-1.33-3.73-1.8-1.64-.58-3.3-1.09-4.97-1.57-.84-.24-1.73-.32-2.59-.48-.14-.02-.28-.04-.41-.09-1.33-.49-2.72-.51-4.1-.58-.25-.01-.51-.05-.76-.11-1.73-.41-3.5-.23-5.24-.4-1.25-.13-2.49.07-3.73.02-1.72-.07-3.42.14-5.13.06-1.67-.08-3.32.06-4.98.2-.92.08-1.84.12-2.76.21-1.43.15-2.85.33-4.27.52-.48.06-.95.2-1.43.27-.29.04-.6.01-.89.05-.31.04-.63.12-.93.19-.38.09-.74.26-1.12.29-.71.05-1.41.1-2.12.29-1.02.28-2.08.43-3.13.61-.73.13-1.44.26-2.14.55-.5.21-1.08.22-1.61.37-1.49.41-2.98.86-4.46,1.28-.47.13-.93.28-1.41.36-1.46.26-2.83.83-4.22,1.31-1.07.36-2.1.83-3.2,1.12-1.15.3-2.23.83-3.35,1.27-.41.16-.81.33-1.22.49-.09.03-.19.04-.26.09-.68.53-1.54.58-2.3.89-.58.23-1.14.49-1.71.75-.86.38-1.72.77-2.58,1.16-.53.24-1.04.51-1.56.74-.4.18-.81.33-1.21.49-.09.03-.19.04-.26.09-.62.51-1.5.57-2.09,1.04-.8.63-1.79.86-2.58,1.45-.09.07-.2.12-.31.15-1.09.31-1.99.93-2.91,1.56-.45.31-.99.48-1.48.75-.66.37-1.31.76-1.96,1.15-.18.11-.34.23-.51.35-.32.22-.64.45-.97.66-.25.17-.5.34-.76.48-.44.24-.9.47-1.35.7-.39.2-.78.39-1.16.62-.25.15-.48.36-.71.54-.16.13-.29.3-.46.41-.69.45-1.4.88-2.09,1.34-.9.61-1.88,1.14-2.65,1.89-.96.93-2.05,1.65-3.14,2.38-.46.31-.89.67-1.28,1.07-.55.55-1.25.87-1.83,1.35-.66.54-1.22,1.19-1.84,1.78-.33.32-.67.64-1.04.91-.58.42-1.21.78-1.52,1.47-.06.13-.23.22-.36.32-.13.1-.29.17-.38.3-.83,1.05-1.91,1.86-2.79,2.87-.08.09-.18.16-.23.26-.49,1.1-1.32,1.94-2.15,2.77-.28.28-.55.58-.73.92-.7,1.29-1.69,2.37-2.54,3.55-.94,1.31-1.83,2.66-2.74,3.99-.04.06-.07.12-.11.18-.27.38-.58.73-.8,1.13-.2.37-.3.8-.44,1.21-.05-.01-.1-.03-.16-.04ZM131.5,263.71c-.36-.06-.59-.13-.83-.13-.39,0-.8.09-1.18.03-1.12-.17-2.22.06-3.32.1-1.62.06-3.23.17-4.84.28-.81.05-1.61.1-2.41.21-.86.12-1.71.32-2.57.47-1.03.18-2.06.33-3.08.5-.46.08-.91.19-1.36.29-.86.19-1.72.37-2.57.57-1.42.32-2.86.58-4.25.98-.97.28-1.95.56-2.84,1.06-.26.15-.55.24-.83.34-1.46.56-3.03.81-4.37,1.7-.11.07-.26.11-.39.13-.98.18-1.76.8-2.64,1.18-.75.32-1.45.67-2.02,1.25-.02.02-.04.02-.06.03-.83.34-1.68.64-2.34,1.29-.19.19-.47.3-.7.45-.14.09-.29.16-.39.28-.48.56-1.15.84-1.77,1.18-.54.3-1.02.63-1.33,1.18-.11.2-.26.39-.41.56-.7.8-1.13,1.72-1.45,2.73-.3.95.04,1.67.58,2.37.7.91,1.67,1.52,2.56,2.22.97.77,2.15.92,3.23,1.35.06.02.15.04.2.01.43-.18.8-.02,1.2.13.29.11.64.09.96.12.28.02.55.01.83.05.64.08,1.28.21,1.93.04.13-.03.31-.05.41.02.4.29.8.11,1.2.05.46-.06.93-.2,1.38-.14.63.08,1.19-.09,1.77-.24.29-.08.56-.21.85-.31,1.05-.36,2.1-.73,3.16-1.06,1.07-.34,2.05-.9,3.09-1.33.88-.36,1.7-.9,2.58-1.32,1.34-.63,2.6-1.4,3.86-2.19.88-.55,1.69-1.21,2.53-1.82.33-.24.65-.51.99-.74.66-.46,1.35-.89,2-1.37.64-.48,1.25-1.01,1.87-1.52.91-.75,1.84-1.48,2.71-2.27,1.07-.97,2.09-2,3.13-3,.67-.64,1.36-1.25,1.99-1.92.44-.47.81-1.01,1.21-1.52.55-.71,1.1-1.42,1.77-2.28ZM150.47,266.16c.11-.07.17-.11.24-.14-.05-.06-.09-.14-.16-.18-.03-.02-.16.03-.16.05,0,.07.04.14.08.27Z"/>
        <path class="cls-4" d="M219.42,279.43c.58.22,1.02.08,1.47-.01,1.38-.28,2.58-1.01,3.87-1.51.12-.05.23-.15.34-.24.87-.67,1.71-1.37,2.65-1.93.49-.3.52-.53.12-.91-.37-.35-.84-.61-1.15-1-.53-.66-1.33-.96-1.92-1.53-.23-.22-.44-.49-.71-.65-.41-.25-.85-.47-1.3-.63-1.33-.47-2.67-.92-4.01-1.35-.34-.11-.72-.08-1.08-.1-.18-.01-.38.05-.55.01-1.34-.33-2.72-.17-4.07-.23-1.4-.06-2.82.03-4.15.6-.4.17-.85.21-1.27.32-.89.22-1.8.4-2.68.68-.82.26-1.65.43-2.5.56-.31.05-.62.21-.89.38-.47.31-.99.46-1.52.63-.46.15-.87.5-1.29.77-.08.05-.12.15-.19.2-1.25.78-2.17,1.93-3.2,2.94-.28.27-.7.43-1.09.56-.34.11-.79-.4-.71-.82.05-.26.18-.54.36-.73.66-.68,1.32-1.36,2.04-1.97.54-.46,1.16-.83,1.75-1.22.29-.19.61-.31.9-.5,1.08-.7,2.27-1.12,3.5-1.49.93-.28,1.92-.33,2.79-.81.04-.02.09-.02.14-.03,1.4-.3,2.8-.6,4.19-.91.41-.09.8-.27,1.21-.32.71-.08,1.43-.09,2.14-.13.23-.01.51.04.68-.07.45-.27.89-.15,1.35-.11.64.06,1.29.07,1.94.1.09,0,.19-.02.28,0,1.51.23,3.01.46,4.52.71.2.03.44.1.57.24.34.38.79.47,1.23.59,1.16.29,2.12.87,2.91,1.78.35.41.81.74,1.28,1.16.03-.2.06-.32.08-.44.09-.55.33-.94.96-1.02.29-.04.57-.19.85-.3.86-.34,1.73-.64,2.56-1.04.64-.31,1.22-.74,1.83-1.12.12-.07.2-.21.32-.26.89-.37,1.57-1.02,2.33-1.58.47-.35.96-.69,1.45-1.02,1.4-.97,2.85-1.89,4.27-2.84.35-.23.68-.47,1.02-.71,1.15-.83,2.47-1.34,3.69-2.05,1.04-.61,2.12-1.12,3.22-1.61,1.63-.72,3.22-1.53,4.77-2.39,1.23-.68,2.38-1.51,3.58-2.26.8-.5,1.63-.96,2.44-1.45.43-.26.84-.57,1.25-.86.29-.19.57-.4.86-.58.43-.26.89-.49,1.32-.77.41-.28.84-.24,1.27-.13.39.1.55.69.26,1.04-.28.33-.61.64-.98.87-.71.44-1.46.81-2.18,1.21-.2.11-.37.27-.57.39-.57.35-1.05.83-1.72,1.01-.24.06-.47.21-.68.35-1.79,1.23-3.59,2.45-5.36,3.71-1.43,1.02-2.81,2.11-4.23,3.14-.48.35-1.03.61-1.54.93-1.44.92-2.88,1.84-4.31,2.78-1.21.8-2.38,1.65-3.66,2.35-.62.34-1.17.82-1.75,1.24-.54.39-1.1.77-1.64,1.17-.52.38-1.03.78-1.55,1.17-.63.47-1.26.93-1.88,1.4-.18.14-.38.27-.5.45-.31.46-.75.74-1.25.96-.18.08-.36.19-.51.33-.28.27-.52.59-.82.84-.3.26-.32.52-.18.86.24.59.54,1.17.68,1.79.22.98.32,1.99.47,2.99.08.52.1,1.06.21,1.57.16.73-.03,1.42-.1,2.13-.03.32-.01.64-.06.95-.13.85,0,1.74-.42,2.55-.16.32-.23.7-.32,1.06-.6,2.39-1.4,4.7-2.59,6.87-.27.48-.57.95-.85,1.42-.07.12-.16.23-.21.36-.57,1.58-1.5,2.96-2.51,4.28-.08.11-.17.22-.24.34-.93,1.79-2.07,3.44-3.12,5.15-.8,1.3-1.54,2.63-2.33,3.94-.31.51-.68.99-1.01,1.49-1.17,1.8-2.14,3.72-3.15,5.61-.34.63-.7,1.25-1.01,1.9-.29.6-.53,1.22-.78,1.84-.11.28-.22.56-.32.84-.56,1.42-1.2,2.81-1.64,4.27-.26.85-.51,1.73-.71,2.6-.17.77-.08,1.58.21,2.32.27.71,1.25,1.13,2.01.99.13-.03.27-.01.43-.01.03.11.09.2.07.28-.1.66-1,1.27-1.64,1.12-1.04-.24-1.7-.97-2.11-1.86-.41-.88-.57-1.81-.2-2.82.48-1.3.73-2.68,1.17-3.99.34-1.03.79-2.02,1.22-3.02.2-.47.45-.91.66-1.37.37-.8.73-1.6,1.11-2.39.5-1.04.98-2.1,1.54-3.11.64-1.15,1.35-2.26,2.03-3.38.79-1.3,1.78-2.47,2.42-3.88.44-.96,1.09-1.82,1.65-2.73.69-1.12,1.4-2.24,2.08-3.37.89-1.46,1.81-2.9,2.64-4.4,1.03-1.86,2-3.75,2.77-5.75.69-1.79,1.12-3.62,1.47-5.48.17-.88.34-1.76.5-2.63.03-.18.03-.37.03-.55,0-.55.03-1.11-.02-1.66-.09-.92-.19-1.84-.38-2.74-.18-.9-.47-1.78-.71-2.66-.11-.39-.45-.48-.83-.25-.7.44-1.41.87-2.1,1.33-.59.4-1.14.84-1.71,1.26-.13.09-.28.16-.42.22-.13.05-.31.04-.39.13-.67.74-1.65.66-2.48.98-.47.18-1,.2-1.48.37-.66.23-1.24-.06-1.81-.26-.37-.13-.59-.92-.46-1.43.27-1.07.91-1.88,1.72-2.6.43-.38.83-.8,1.18-1.25.63-.8,1.41-1.25,2.43-1.25.4,0,.64.12.71.41.07.29-.1.52-.47.66-.09.03-.18.06-.27.08q-.73.16-1.2.85c.38-.27.75-.15,1.15-.09.21.04.45-.04.67-.1.49-.14.96-.35,1.45-.46.51-.12.79,0,.9.3.15.39,0,.79-.39,1.08-.27.19-.53.36-.88.34-.15,0-.31.08-.46.14-.89.34-1.77.68-2.66,1.02-.59.22-.84.04-.86-.6,0-.11-.03-.23-.06-.33,0-.03-.07-.05-.14-.11-.61.46-.59,1.25-1,1.89ZM228.34,273.14c.1.14.19.24.26.35.09.13.2.26.25.4.19.59.47.71.98.36.23-.16.42-.36.65-.52.52-.37,1.08-.7,1.57-1.1.89-.73,1.71-1.53,2.66-2.2.83-.58,1.55-1.31,2.38-1.89,1.16-.8,2.38-1.52,3.57-2.26.17-.11.44-.11.55-.24.4-.51.97-.76,1.5-1.1.52-.34.97-.78,1.49-1.12.98-.64,2-1.23,3-1.85.43-.27.83-.58,1.28-.82.51-.27.85-.79,1.47-.89.2-.03.36-.2.26-.54-.16.02-.35,0-.49.07-.48.23-.95.47-1.41.73-.91.52-1.84,1.03-2.74,1.56-1.01.59-2.1,1.07-3,1.85-.47.4-1.03.7-1.55,1.04-.96.63-1.96,1.22-2.88,1.92-1.16.87-2.25,1.83-3.36,2.76-.94.78-2.09,1.18-3.15,1.73-.49.25-1,.54-1.53.62-.8.12-1.23.64-1.75,1.16Z"/>
      </g>
    </g>
  </g>
</svg>