<?xml version="1.0" encoding="UTF-8"?>
<svg id="_レイヤー_2" data-name="レイヤー 2" xmlns="http://www.w3.org/2000/svg" viewBox="0 0 265.62 34.42">
  <defs>
    <style>
      .cls-1 {
        fill: #48696a;
      }
    </style>
  </defs>
  <g id="img">
    <g>
      <g>
        <path class="cls-1" d="M18.07,1.75l3.6,11.07c.16.5.63.84,1.16.84h11.63l-9.41,6.84c-.43.31-.61.86-.44,1.36l3.6,11.07-9.41-6.84c-.21-.15-.46-.23-.72-.23s-.51.08-.72.23l-9.41,6.84,3.6-11.07c.16-.5-.01-1.05-.44-1.36L1.68,13.66h11.63c.53,0,.99-.34,1.16-.84l3.6-11.07M18.07,0c-.16,0-.32.09-.38.28l-3.99,12.29c-.05.16-.21.28-.38.28H.4c-.39,0-.55.5-.24.72l10.45,7.59c.14.1.2.28.15.45l-3.99,12.29c-.09.28.13.53.38.53.08,0,.16-.02.23-.08l10.45-7.59c.07-.05.15-.08.24-.08s.17.03.24.08l10.45,7.59c.07.05.16.08.23.08.25,0,.47-.25.38-.53l-3.99-12.29c-.05-.16,0-.35.15-.45l10.45-7.59c.31-.23.15-.72-.24-.72h-12.92c-.17,0-.33-.11-.38-.28L18.45.28C18.39.09,18.23,0,18.07,0h0Z"/>
        <path class="cls-1" d="M18.45.28l3.99,12.29c.05.16.21.28.38.28h12.92c.39,0,.55.5.24.72l-10.45,7.59c-.14.1-.2.28-.15.45l3.99,12.29c.12.37-.3.68-.62.45l-10.45-7.59c-.14-.1-.33-.1-.47,0l-10.45,7.59c-.31.23-.74-.08-.62-.45l3.99-12.29c.05-.16,0-.35-.15-.45L.17,13.56c-.31-.23-.15-.72.24-.72h12.92c.17,0,.33-.11.38-.28L17.69.28c.12-.37.64-.37.76,0Z"/>
      </g>
      <g>
        <path class="cls-1" d="M63.97,1.75l3.6,11.07c.16.5.63.84,1.16.84h11.63l-9.41,6.84c-.43.31-.61.86-.44,1.36l3.6,11.07-9.41-6.84c-.21-.15-.46-.23-.72-.23s-.51.08-.72.23l-9.41,6.84,3.6-11.07c.16-.5-.01-1.05-.44-1.36l-9.41-6.84h11.63c.53,0,.99-.34,1.16-.84l3.6-11.07M63.97,0c-.16,0-.32.09-.38.28l-3.99,12.29c-.05.16-.21.28-.38.28h-12.92c-.39,0-.55.5-.24.72l10.45,7.59c.14.1.2.28.15.45l-3.99,12.29c-.09.28.13.53.38.53.08,0,.16-.02.23-.08l10.45-7.59c.07-.05.15-.08.24-.08s.17.03.24.08l10.45,7.59c.07.05.16.08.23.08.25,0,.47-.25.38-.53l-3.99-12.29c-.05-.16,0-.35.15-.45l10.45-7.59c.31-.23.15-.72-.24-.72h-12.92c-.17,0-.33-.11-.38-.28l-3.99-12.29c-.06-.18-.22-.28-.38-.28h0Z"/>
        <path class="cls-1" d="M64.35.28l3.99,12.29c.05.16.21.28.38.28h12.92c.39,0,.55.5.24.72l-10.45,7.59c-.14.1-.2.28-.15.45l3.99,12.29c.12.37-.3.68-.62.45l-10.45-7.59c-.14-.1-.33-.1-.47,0l-10.45,7.59c-.31.23-.74-.08-.62-.45l3.99-12.29c.05-.16,0-.35-.15-.45l-10.45-7.59c-.31-.23-.15-.72.24-.72h12.92c.17,0,.33-.11.38-.28L63.59.28c.12-.37.64-.37.76,0Z"/>
      </g>
      <g>
        <path class="cls-1" d="M109.86,1.75l3.6,11.07c.16.5.63.84,1.16.84h11.63l-9.41,6.84c-.43.31-.61.86-.44,1.36l3.6,11.07-9.41-6.84c-.21-.15-.46-.23-.72-.23s-.51.08-.72.23l-9.41,6.84,3.6-11.07c.16-.5-.01-1.05-.44-1.36l-9.41-6.84h11.63c.53,0,.99-.34,1.16-.84l3.6-11.07M109.86,0c-.16,0-.32.09-.38.28l-3.99,12.29c-.05.16-.21.28-.38.28h-12.92c-.39,0-.55.5-.24.72l10.45,7.59c.14.1.2.28.15.45l-3.99,12.29c-.09.28.13.53.38.53.08,0,.16-.02.23-.08l10.45-7.59c.07-.05.15-.08.24-.08s.17.03.24.08l10.45,7.59c.07.05.16.08.23.08.25,0,.47-.25.38-.53l-3.99-12.29c-.05-.16,0-.35.15-.45l10.45-7.59c.31-.23.15-.72-.24-.72h-12.92c-.17,0-.33-.11-.38-.28l-3.99-12.29c-.06-.18-.22-.28-.38-.28h0Z"/>
        <path class="cls-1" d="M110.24.28l3.99,12.29c.05.16.21.28.38.28h12.92c.39,0,.55.5.24.72l-10.45,7.59c-.14.1-.2.28-.15.45l3.99,12.29c.12.37-.3.68-.62.45l-10.45-7.59c-.14-.1-.33-.1-.47,0l-10.45,7.59c-.31.23-.74-.08-.62-.45l3.99-12.29c.05-.16,0-.35-.15-.45l-10.45-7.59c-.31-.23-.15-.72.24-.72h12.92c.17,0,.33-.11.38-.28l3.99-12.29c.12-.37.64-.37.76,0Z"/>
      </g>
      <g>
        <path class="cls-1" d="M155.76,1.75l3.6,11.07c.16.5.63.84,1.16.84h11.63l-9.41,6.84c-.43.31-.61.86-.44,1.36l3.6,11.07-9.41-6.84c-.21-.15-.46-.23-.72-.23s-.51.08-.72.23l-9.41,6.84,3.6-11.07c.16-.5-.01-1.05-.44-1.36l-9.41-6.84h11.63c.53,0,.99-.34,1.16-.84l3.6-11.07M155.76,0c-.16,0-.32.09-.38.28l-3.99,12.29c-.05.16-.21.28-.38.28h-12.92c-.39,0-.55.5-.24.72l10.45,7.59c.14.1.2.28.15.45l-3.99,12.29c-.09.28.13.53.38.53.08,0,.16-.02.23-.08l10.45-7.59c.07-.05.15-.08.24-.08s.17.03.24.08l10.45,7.59c.07.05.16.08.23.08.25,0,.47-.25.38-.53l-3.99-12.29c-.05-.16,0-.35.15-.45l10.45-7.59c.31-.23.15-.72-.24-.72h-12.92c-.17,0-.33-.11-.38-.28l-3.99-12.29c-.06-.18-.22-.28-.38-.28h0Z"/>
        <path class="cls-1" d="M156.14.28l3.99,12.29c.05.16.21.28.38.28h12.92c.39,0,.55.5.24.72l-10.45,7.59c-.14.1-.2.28-.15.45l3.99,12.29c.12.37-.3.68-.62.45l-10.45-7.59c-.14-.1-.33-.1-.47,0l-10.45,7.59c-.31.23-.74-.08-.62-.45l3.99-12.29c.05-.16,0-.35-.15-.45l-10.45-7.59c-.31-.23-.15-.72.24-.72h12.92c.17,0,.33-.11.38-.28l3.99-12.29c.12-.37.64-.37.76,0Z"/>
      </g>
      <g>
        <path class="cls-1" d="M201.66,1.75l3.6,11.07c.16.5.63.84,1.16.84h11.63l-9.41,6.84c-.43.31-.61.86-.44,1.36l3.6,11.07-9.41-6.84c-.21-.15-.46-.23-.72-.23s-.51.08-.72.23l-9.41,6.84,3.6-11.07c.16-.5-.01-1.05-.44-1.36l-9.41-6.84h11.63c.53,0,.99-.34,1.16-.84l3.6-11.07M201.66,0c-.16,0-.32.09-.38.28l-3.99,12.29c-.05.16-.21.28-.38.28h-12.92c-.39,0-.55.5-.24.72l10.45,7.59c.14.1.2.28.15.45l-3.99,12.29c-.09.28.13.53.38.53.08,0,.16-.02.23-.08l10.45-7.59c.07-.05.15-.08.24-.08s.17.03.24.08l10.45,7.59c.07.05.16.08.23.08.25,0,.47-.25.38-.53l-3.99-12.29c-.05-.16,0-.35.15-.45l10.45-7.59c.31-.23.15-.72-.24-.72h-12.92c-.17,0-.33-.11-.38-.28l-3.99-12.29c-.06-.18-.22-.28-.38-.28h0Z"/>
        <path class="cls-1" d="M202.04.28l3.99,12.29c.05.16.21.28.38.28h12.92c.39,0,.55.5.24.72l-10.45,7.59c-.14.1-.2.28-.15.45l3.99,12.29c.12.37-.3.68-.62.45l-10.45-7.59c-.14-.1-.33-.1-.47,0l-10.45,7.59c-.31.23-.74-.08-.62-.45l3.99-12.29c.05-.16,0-.35-.15-.45l-10.45-7.59c-.31-.23-.15-.72.24-.72h12.92c.17,0,.33-.11.38-.28l3.99-12.29c.12-.37.64-.37.76,0Z"/>
      </g>
      <path class="cls-1" d="M247.55,1.75l3.6,11.07c.16.5.63.84,1.16.84h11.63l-9.41,6.84c-.43.31-.61.86-.44,1.36l3.6,11.07-9.41-6.84c-.21-.15-.46-.23-.72-.23s-.51.08-.72.23l-9.41,6.84,3.6-11.07c.16-.5-.01-1.05-.44-1.36l-9.41-6.84h11.63c.53,0,.99-.34,1.16-.84l3.6-11.07M247.55,0c-.16,0-.32.09-.38.28l-3.99,12.29c-.05.16-.21.28-.38.28h-12.92c-.39,0-.55.5-.24.72l10.45,7.59c.14.1.2.28.15.45l-3.99,12.29c-.09.28.13.53.38.53.08,0,.16-.02.23-.08l10.45-7.59c.07-.05.15-.08.24-.08s.17.03.24.08l10.45,7.59c.07.05.16.08.23.08.25,0,.47-.25.38-.53l-3.99-12.29c-.05-.16,0-.35.15-.45l10.45-7.59c.31-.23.15-.72-.24-.72h-12.92c-.17,0-.33-.11-.38-.28l-3.99-12.29c-.06-.18-.22-.28-.38-.28h0Z"/>
    </g>
  </g>
</svg>