<?xml version="1.0" encoding="UTF-8"?>
<svg id="_レイヤー_2" data-name="レイヤー 2" xmlns="http://www.w3.org/2000/svg" viewBox="0 0 392.55 141.51">
  <defs>
    <style>
      .cls-1 {
        fill: #e57a64;
        stroke: #e57a64;
        stroke-miterlimit: 10;
        stroke-width: .5px;
      }
    </style>
  </defs>
  <g id="img">
    <g>
      <path class="cls-1" d="M.3,80.29c.12-.52.24-1.04.37-1.56.05-.2.21-.45.14-.57-.41-.71.11-1.16.42-1.66.45-.72.92-1.44,1.38-2.15.15-.23.28-.48.48-.67,1.42-1.33,2.19-3.12,3.33-4.65.96-1.28,1.94-2.55,2.92-3.82,1.7-2.22,3.37-4.47,5.11-6.65.87-1.09,1.84-2.11,2.82-3.1,1.57-1.57,3.15-3.12,4.79-4.61,1.66-1.51,3.43-2.9,5.11-4.4,2.12-1.89,4.46-3.48,6.83-5.02,1.14-.74,2.16-1.67,3.24-2.5,1.08-.83,2.17-1.65,3.26-2.46.87-.65,1.76-1.27,2.65-1.91.11-.08.22-.16.35-.22,1.86-.94,3.61-2.06,5.33-3.23.92-.63,1.98-1.05,2.95-1.62,1.94-1.13,3.85-2.3,5.78-3.45.18-.11.35-.23.54-.29,2.1-.66,3.96-1.79,5.82-2.93.6-.37,1.32-.56,1.97-.87,2.06-.98,4.11-2,6.18-2.97,1.2-.56,2.44-1.05,3.65-1.6,1.3-.59,2.56-1.26,3.87-1.81,1.67-.7,3.34-1.39,5.05-1.97,2.15-.74,4.3-1.5,6.44-2.3,1.85-.69,3.76-1.19,5.64-1.82,1.87-.63,3.72-1.31,5.59-1.95.71-.24,1.43-.46,2.16-.64,2.21-.56,4.43-1.11,6.65-1.66.33-.08.67-.12,1-.2,2.46-.56,4.92-1.12,7.38-1.68.23-.05.47-.11.71-.1.55,0,1.05-.15,1.58-.29.98-.27,2.01-.36,3.02-.48,1.65-.19,3.31-.35,4.97-.52.74-.08,1.48-.17,2.23-.26,1.72-.2,3.44-.41,5.16-.61.2-.02.42-.02.6-.1,1.34-.56,2.75-.42,4.15-.45.24,0,.48.05.72.02,2.99-.45,5.99-.01,8.99-.25,1.85-.15,3.74.07,5.61.1.72.01,1.43-.06,2.15-.03,1.98.08,3.95.17,5.93.3,2.18.14,4.35.32,6.53.49.23.02.5.05.69.17.67.4,1.38.58,2.16.5.07,0,.15-.01.2.02,1.08.64,2.32.47,3.48.7,1.1.22,2.19.51,3.27.84,1.6.48,3.19,1,4.77,1.54.38.13.71.39,1.08.57.3.15.6.36.93.4,1.46.2,2.77.78,3.95,1.62,1.11.79,2.15,1.67,3.2,2.55.94.79,1.86,1.61,2.75,2.45.82.77,1.59,1.6,2.09,2.63.09.18.22.35.36.49.82.78,1.1,1.78,1.2,2.86.1,1.05.55,2.03.45,3.11-.05.61.02,1.22,0,1.83-.08,2.08-.56,4.04-1.62,5.85-.17.29-.23.64-.29.98-.16.91-.63,1.65-1.26,2.3-.54.56-.99,1.18-1.21,1.97.6.35,1.19.25,1.74.12.7-.16,1.33-.14,1.98.21.35.18.78.23,1.18.28,2.1.27,4.21.47,6.3.79,1.38.21,2.73.6,4.1.89.37.08.75.07,1.11.15.43.09.84.25,1.27.35.53.12,1.06.21,1.59.32.53.11,1.07.19,1.58.35.61.19,1.2.46,1.81.68,1.47.55,2.92,1.17,4.42,1.61,1.95.57,3.38,1.86,4.8,3.19.3.28.56.59.81.92.55.74,1.1,1.48,1.61,2.24.36.54.64,1.12.59,1.82-.02.26.1.52.16.78.05.23.14.47.12.69-.11,1.76-.34,3.53-.35,5.29-.02,2.04.14,4.08.23,6.12,0,.14.05.27.04.41-.14,1.51.64,2.67,1.48,3.8,1.21,1.64,2.72,2.87,4.71,3.41.95.26,1.91.48,2.87.72.66.16,1.32.32,1.98.47,1.66.39,3.26-.05,4.87-.34.56-.1,1.14-.15,1.69-.3,1.43-.37,2.94-.32,4.31-.99.78-.38,1.71-.45,2.55-.74,1.16-.4,2.28-.89,3.43-1.33.22-.08.46-.12.69-.19.46-.13.94-.21,1.37-.41,1.97-.93,4.08-1.54,5.94-2.73,1.4-.9,2.91-1.64,4.35-2.48.38-.22.67-.57,1.02-.84.32-.25.64-.52.99-.72.85-.46,1.54-.29,1.94.43.38.67.16,1.71-.53,2.08-.56.3-1.21.43-1.82.65-.51.18-1.03.32-1.51.55-.74.35-1.45.76-2.17,1.14-.69.37-1.38.74-2.08,1.1-1.05.54-2.02,1.28-3.25,1.39-.03,0-.07,0-.1.03-1.43,1.18-3.31,1.29-4.92,2.06-.76.36-1.57.81-2.37.84-1.18.04-2.06.81-3.17.99-1.06.17-2.08.61-3.13.93-.19.06-.4.1-.6.09-1.28-.06-2.47.27-3.67.7-.42.15-.94.04-1.41.02-.81-.03-1.62-.07-2.44-.11-.17,0-.35,0-.51-.04-2.04-.53-4.12-.94-6.1-1.65-2.24-.8-4.02-2.31-5.07-4.51-.47-.98-.98-1.98-1.19-3.03-.27-1.39-.41-2.84-.35-4.26.11-2.55.41-5.09.61-7.64.15-1.94-.49-3.62-1.78-5.07-.11-.13-.22-.26-.32-.4-1.61-2.28-3.87-3.54-6.51-4.29-.91-.26-1.74-.77-2.61-1.16-.28-.13-.55-.34-.83-.36-1.7-.11-3.21-.9-4.83-1.3-.82-.2-1.67-.33-2.5-.49-1.67-.33-3.41-.26-5.02-.9-.27-.11-.6-.09-.9-.12-1.43-.12-2.86-.24-4.29-.34-1.22-.09-2.46-.11-3.67-.24-1.06-.11-1.75.45-2.35,1.17-1.53,1.83-3,3.72-4.56,5.52-.93,1.08-2.01,2.03-3.02,3.05-.29.29-.57.59-.86.88-.22.22-.4.51-.67.62-1.17.51-1.88,1.57-2.85,2.31-2.2,1.68-4,3.82-6.39,5.27-.38.23-.69.55-1.05.82-.79.59-1.59,1.17-2.38,1.75-.33.24-.66.48-1.01.7-.62.41-1.25.81-1.88,1.21-1.38.87-2.75,1.76-4.14,2.61-1.66,1.01-3.34,1.99-5.01,2.98-.41.24-.85.45-1.23.73-1.31.98-2.9,1.36-4.32,2.1-.23.12-.53.09-.8.15-.29.06-.64.08-.86.24-.66.48-1.42.63-2.17.87-1.13.36-2.22.86-3.35,1.25-.61.21-1.24.36-1.87.48-1.1.22-2.21.43-3.32.57-1.01.13-2.04.24-3.06.24-1.8,0-3.63.08-5.4-.18-1.85-.27-3.65-.87-5.45-1.38-.41-.12-.77-.43-1.15-.65-1.29-.77-2.66-1.44-3.84-2.35-1.95-1.51-3.31-3.4-3.33-6.04,0-1.23.35-2.32,1.06-3.25,1.18-1.54,2.49-2.98,3.75-4.46.11-.13.24-.3.38-.33,1.08-.22,1.67-1.13,2.48-1.74.71-.53,1.48-.97,2.22-1.45.97-.64,1.91-1.32,2.91-1.9.73-.43,1.54-.71,2.29-1.1.81-.42,1.59-.88,2.39-1.32.33-.18.65-.38.99-.52,1.64-.68,3.27-1.38,4.92-2.01,1.62-.62,3.27-1.17,4.92-1.73,1.1-.38,2.21-.69,3.3-1.09,1.73-.62,3.46-1.21,5.3-1.44.13-.02.27-.04.4-.09,2.41-.95,4.95-1.24,7.48-1.62,1.24-.19,2.46-.54,3.69-.8.37-.08.74-.11,1.11-.17.84-.12,1.69-.25,2.53-.37.34-.05.68-.08,1.01-.11.27-.02.57.04.81-.06,1.7-.69,3.52-.3,5.26-.6.32-.06.67.05,1.01.06.2.01.41.04.59,0,2.05-.51,4.14-.37,6.21-.42,1.81-.04,3.62.03,5.42.08.81.02,1.4-.33,1.78-.98.48-.82.88-1.69,1.31-2.54.09-.18.16-.41.31-.53,1.35-1.1,1.58-2.83,2.42-4.22-.05-1.13.7-2.15.42-3.31-.05-.19-.07-.44.01-.61.62-1.27-.05-2.43-.37-3.56-.33-1.13-.96-2.18-1.47-3.26-.06-.12-.11-.27-.21-.35-1.32-1.12-2.12-2.76-3.68-3.66-.29-.17-.53-.44-.75-.7-.63-.75-1.41-1.28-2.26-1.73-1.8-.94-3.55-1.96-5.5-2.66-2.42-.86-4.86-1.61-7.33-2.31-1.24-.35-2.55-.48-3.82-.71-.2-.04-.41-.06-.6-.13-1.96-.72-4.01-.76-6.05-.85-.37-.02-.75-.07-1.11-.16-2.55-.6-5.16-.33-7.73-.59-1.84-.19-3.68.11-5.5.03-2.53-.11-5.05.21-7.56.09-2.46-.11-4.9.09-7.34.3-1.35.12-2.72.17-4.07.32-2.1.23-4.2.49-6.3.76-.71.09-1.4.29-2.1.4-.43.07-.88.02-1.32.07-.46.06-.92.17-1.38.28-.55.13-1.09.38-1.65.42-1.05.08-2.08.15-3.13.43-1.51.41-3.07.63-4.62.91-1.07.19-2.13.38-3.15.81-.74.31-1.6.33-2.38.54-2.2.61-4.39,1.26-6.58,1.89-.69.2-1.37.41-2.08.54-2.16.38-4.17,1.23-6.23,1.93-1.58.54-3.09,1.22-4.72,1.65-1.69.45-3.3,1.23-4.94,1.87-.6.23-1.2.48-1.8.72-.13.05-.28.06-.38.14-1,.78-2.27.86-3.39,1.32-.85.35-1.69.73-2.53,1.1-1.27.57-2.54,1.13-3.8,1.71-.77.36-1.53.75-2.31,1.1-.59.26-1.19.49-1.79.73-.13.05-.29.05-.38.14-.92.76-2.21.84-3.09,1.54-1.17.93-2.64,1.27-3.81,2.14-.13.1-.3.17-.46.22-1.6.45-2.94,1.38-4.29,2.3-.66.46-1.47.71-2.18,1.11-.98.54-1.93,1.13-2.89,1.7-.26.16-.51.34-.76.51-.48.33-.95.66-1.43.98-.37.25-.73.5-1.12.71-.66.36-1.33.69-1.99,1.04-.57.3-1.16.58-1.71.91-.38.23-.71.52-1.05.8-.24.19-.43.44-.68.61-1.02.67-2.07,1.3-3.08,1.98-1.33.9-2.77,1.69-3.91,2.78-1.42,1.37-3.02,2.43-4.63,3.51-.68.46-1.31.99-1.88,1.57-.8.81-1.84,1.28-2.7,1.99-.97.8-1.81,1.76-2.72,2.63-.49.47-.99.94-1.54,1.34-.85.62-1.78,1.14-2.24,2.18-.09.2-.34.32-.53.47-.19.15-.42.26-.56.44-1.23,1.56-2.82,2.75-4.11,4.24-.11.13-.27.23-.33.38-.72,1.62-1.94,2.85-3.17,4.08-.41.41-.81.86-1.08,1.36-1.03,1.91-2.5,3.49-3.75,5.23-1.39,1.93-2.7,3.92-4.04,5.89-.06.08-.11.18-.17.26-.4.55-.86,1.08-1.18,1.67-.3.55-.44,1.18-.65,1.78-.08-.02-.15-.04-.23-.06ZM194.24,36.21c-.53-.09-.88-.19-1.23-.2-.58-.01-1.17.13-1.74.04-1.65-.26-3.27.09-4.9.14-2.38.09-4.76.26-7.14.41-1.19.08-2.38.15-3.56.31-1.27.18-2.53.48-3.79.7-1.51.26-3.03.48-4.54.74-.67.12-1.34.28-2,.43-1.26.28-2.53.55-3.79.83-2.09.47-4.21.86-6.27,1.45-1.43.41-2.87.83-4.19,1.57-.38.22-.82.35-1.23.51-2.15.83-4.47,1.2-6.44,2.5-.16.11-.38.16-.58.19-1.45.26-2.59,1.18-3.89,1.74-1.1.48-2.15.98-2.98,1.85-.02.02-.06.03-.09.04-1.22.5-2.47.94-3.45,1.9-.29.28-.69.44-1.03.67-.2.13-.43.24-.58.42-.72.82-1.7,1.24-2.62,1.75-.8.44-1.5.94-1.96,1.74-.17.29-.38.57-.61.82-1.04,1.17-1.66,2.54-2.13,4.03-.45,1.4.06,2.46.85,3.49,1.03,1.35,2.46,2.24,3.77,3.27,1.44,1.13,3.17,1.35,4.77,1.99.09.04.22.05.3.02.63-.27,1.18-.03,1.77.19.43.16.94.14,1.41.18.41.04.82.02,1.22.07.95.11,1.89.31,2.84.06.19-.05.46-.08.6.02.59.43,1.18.16,1.77.07.68-.09,1.37-.3,2.03-.21.93.12,1.76-.13,2.61-.36.43-.11.83-.31,1.25-.46,1.55-.53,3.09-1.07,4.65-1.57,1.59-.5,3.02-1.33,4.56-1.96,1.3-.53,2.5-1.33,3.8-1.94,1.97-.92,3.84-2.07,5.69-3.23,1.3-.81,2.49-1.78,3.73-2.69.49-.36.96-.75,1.46-1.09.98-.68,2-1.31,2.95-2.02.95-.71,1.85-1.49,2.76-2.25,1.34-1.11,2.71-2.18,3.99-3.35,1.58-1.43,3.08-2.94,4.62-4.42.98-.94,2-1.84,2.94-2.83.66-.69,1.2-1.48,1.79-2.23.82-1.04,1.63-2.09,2.61-3.36ZM222.21,39.82c.16-.1.26-.15.35-.21-.07-.09-.13-.21-.23-.26-.05-.03-.23.05-.23.08,0,.11.05.21.11.39Z"/>
      <path class="cls-1" d="M323.9,59.4c.85.32,1.5.12,2.17-.02,2.03-.42,3.8-1.49,5.7-2.22.18-.07.34-.23.5-.35,1.28-.98,2.51-2.02,3.9-2.85.73-.44.77-.79.17-1.35-.54-.51-1.24-.89-1.69-1.47-.78-.98-1.96-1.42-2.83-2.25-.34-.33-.66-.72-1.05-.96-.6-.37-1.25-.69-1.92-.93-1.96-.7-3.93-1.36-5.92-1.99-.5-.16-1.06-.12-1.6-.15-.27-.02-.56.08-.81.02-1.98-.48-4-.25-6-.33-2.06-.09-4.15.05-6.12.89-.59.25-1.25.31-1.88.47-1.32.33-2.66.59-3.95,1.01-1.21.39-2.44.63-3.68.83-.46.07-.91.31-1.31.56-.7.45-1.46.68-2.25.94-.69.22-1.28.74-1.9,1.13-.11.07-.17.22-.29.29-1.84,1.16-3.2,2.84-4.73,4.34-.41.4-1.03.64-1.6.83-.5.17-1.16-.58-1.05-1.21.07-.38.26-.8.53-1.07.97-1,1.95-2,3.01-2.9.8-.68,1.71-1.22,2.58-1.8.42-.28.9-.46,1.33-.74,1.59-1.04,3.35-1.66,5.16-2.19,1.37-.41,2.84-.48,4.11-1.2.06-.03.13-.03.2-.04,2.06-.45,4.13-.88,6.18-1.34.6-.13,1.18-.4,1.78-.47,1.04-.12,2.1-.13,3.15-.19.34-.02.75.06,1.01-.1.66-.4,1.31-.22,1.99-.16.95.08,1.91.11,2.86.15.14,0,.28-.03.41,0,2.22.34,4.44.68,6.66,1.04.29.05.66.14.84.35.5.56,1.16.7,1.82.86,1.7.43,3.13,1.28,4.29,2.62.52.61,1.19,1.09,1.88,1.71.05-.29.09-.47.12-.66.13-.82.49-1.38,1.41-1.5.43-.05.84-.27,1.25-.44,1.27-.5,2.56-.95,3.78-1.53.94-.45,1.8-1.08,2.69-1.64.17-.11.3-.31.48-.38,1.31-.55,2.32-1.5,3.43-2.33.69-.52,1.42-1.01,2.14-1.51,2.07-1.44,4.2-2.79,6.3-4.18.51-.34,1.01-.69,1.51-1.05,1.7-1.22,3.65-1.97,5.44-3.03,1.53-.9,3.12-1.66,4.74-2.37,2.4-1.06,4.75-2.25,7.04-3.52,1.82-1.01,3.51-2.23,5.28-3.33,1.18-.74,2.41-1.41,3.6-2.14.64-.39,1.23-.84,1.85-1.26.42-.29.84-.58,1.27-.85.64-.39,1.32-.72,1.94-1.14.61-.41,1.24-.35,1.87-.19.58.15.82,1.02.39,1.53-.41.49-.9.95-1.44,1.28-1.04.65-2.15,1.19-3.22,1.79-.3.17-.55.4-.84.58-.83.52-1.55,1.23-2.54,1.49-.35.09-.69.3-1,.52-2.64,1.82-5.29,3.62-7.9,5.48-2.11,1.5-4.15,3.11-6.24,4.63-.71.52-1.52.9-2.27,1.38-2.13,1.36-4.25,2.71-6.36,4.1-1.79,1.18-3.51,2.44-5.4,3.47-.92.5-1.72,1.22-2.58,1.83-.8.57-1.62,1.14-2.41,1.72-.77.56-1.52,1.15-2.29,1.72-.92.69-1.85,1.37-2.77,2.07-.27.2-.56.4-.74.67-.46.68-1.1,1.1-1.84,1.42-.27.12-.54.29-.75.49-.42.4-.77.87-1.21,1.24-.44.38-.47.77-.26,1.28.36.87.8,1.73,1,2.64.32,1.45.47,2.94.69,4.42.11.77.15,1.56.31,2.32.23,1.07-.05,2.1-.14,3.15-.04.47-.02.94-.09,1.41-.18,1.26,0,2.57-.62,3.77-.24.48-.33,1.03-.47,1.56-.89,3.52-2.06,6.94-3.82,10.13-.39.71-.84,1.4-1.26,2.09-.11.18-.24.34-.31.53-.84,2.34-2.22,4.36-3.71,6.32-.12.16-.26.32-.35.5-1.37,2.63-3.06,5.07-4.6,7.6-1.17,1.92-2.27,3.89-3.43,5.81-.45.76-1,1.45-1.48,2.2-1.73,2.66-3.16,5.48-4.65,8.28-.5.93-1.03,1.85-1.49,2.8-.43.88-.78,1.8-1.15,2.71-.17.41-.32.82-.48,1.24-.82,2.09-1.77,4.15-2.42,6.29-.38,1.26-.76,2.55-1.04,3.84-.25,1.13-.11,2.33.3,3.41.4,1.05,1.84,1.67,2.97,1.45.19-.04.4-.02.63-.02.05.16.13.29.11.41-.15.98-1.48,1.87-2.43,1.65-1.54-.35-2.51-1.43-3.12-2.75-.6-1.3-.85-2.66-.29-4.16.71-1.91,1.08-3.95,1.72-5.89.5-1.52,1.17-2.98,1.79-4.46.29-.69.66-1.35.98-2.03.55-1.17,1.07-2.36,1.63-3.53.74-1.54,1.45-3.09,2.28-4.58.94-1.7,1.99-3.33,3-4.99,1.17-1.92,2.62-3.64,3.57-5.72.65-1.41,1.61-2.69,2.43-4.02,1.02-1.66,2.06-3.3,3.07-4.96,1.31-2.15,2.67-4.28,3.89-6.49,1.51-2.75,2.95-5.53,4.08-8.48,1.01-2.64,1.65-5.34,2.17-8.09.25-1.3.5-2.59.73-3.89.05-.27.04-.54.04-.81,0-.82.04-1.64-.04-2.45-.13-1.35-.28-2.71-.55-4.04-.27-1.33-.69-2.62-1.05-3.93-.16-.57-.67-.71-1.22-.36-1.03.65-2.08,1.28-3.09,1.96-.86.59-1.68,1.25-2.53,1.86-.19.14-.41.24-.63.33-.19.08-.46.06-.57.19-.98,1.09-2.44.97-3.66,1.45-.69.27-1.47.3-2.18.55-.98.34-1.82-.08-2.67-.39-.55-.2-.86-1.35-.67-2.1.4-1.57,1.34-2.77,2.53-3.83.63-.56,1.22-1.18,1.75-1.84.93-1.18,2.07-1.84,3.58-1.85.59,0,.94.18,1.04.6.1.42-.14.76-.7.97-.13.05-.26.09-.39.12q-1.07.23-1.77,1.26c.55-.4,1.11-.23,1.69-.13.31.05.67-.06.99-.15.72-.21,1.41-.51,2.14-.68.75-.17,1.16.01,1.33.44.22.57,0,1.17-.58,1.59-.39.29-.78.53-1.3.51-.22,0-.46.12-.68.2-1.31.5-2.61,1-3.92,1.5-.87.33-1.24.06-1.27-.89,0-.17-.04-.33-.09-.49-.01-.05-.1-.08-.21-.16-.9.68-.87,1.84-1.47,2.78ZM337.05,50.12c.15.2.28.35.39.51.13.19.3.38.37.6.28.88.7,1.05,1.44.54.34-.23.63-.53.96-.77.77-.55,1.59-1.03,2.32-1.63,1.31-1.08,2.52-2.26,3.92-3.25,1.22-.86,2.29-1.94,3.51-2.78,1.71-1.18,3.5-2.24,5.27-3.34.25-.16.65-.16.82-.36.6-.75,1.44-1.12,2.21-1.62.77-.5,1.44-1.16,2.2-1.65,1.45-.94,2.95-1.82,4.42-2.73.63-.39,1.23-.86,1.89-1.21.75-.4,1.26-1.16,2.17-1.31.3-.05.54-.3.38-.8-.24.03-.52,0-.73.1-.71.33-1.4.69-2.08,1.08-1.35.77-2.71,1.52-4.04,2.3-1.49.87-3.1,1.57-4.43,2.73-.69.6-1.52,1.03-2.29,1.53-1.42.94-2.9,1.8-4.25,2.82-1.7,1.29-3.31,2.7-4.96,4.07-1.39,1.15-3.08,1.73-4.65,2.55-.72.37-1.48.8-2.26.91-1.18.17-1.82.94-2.58,1.71Z"/>
    </g>
  </g>
</svg>