<?xml version="1.0" encoding="UTF-8"?>
<svg id="_レイヤー_2" data-name="レイヤー 2" xmlns="http://www.w3.org/2000/svg" xmlns:xlink="http://www.w3.org/1999/xlink" viewBox="0 0 1564.23 1589.16">
  <defs>
    <style>
      .cls-1 {
        opacity: .15;
      }

      .cls-2 {
        fill: url(#_名称未設定グラデーション_31);
      }
    </style>
    <radialGradient id="_名称未設定グラデーション_31" data-name="名称未設定グラデーション 31" cx="782.12" cy="794.58" fx="178.81" fy="191.28" r="853.2" gradientUnits="userSpaceOnUse">
      <stop offset="0" stop-color="#a7cdc7"/>
      <stop offset=".29" stop-color="#c1d0ce"/>
      <stop offset=".35" stop-color="#d1c9c0"/>
      <stop offset=".48" stop-color="#edbeaa"/>
      <stop offset=".56" stop-color="#f8bba2"/>
      <stop offset=".67" stop-color="#f5bba4"/>
      <stop offset=".74" stop-color="#ecbfaa"/>
      <stop offset=".8" stop-color="#dec4b6"/>
      <stop offset=".86" stop-color="#c9ccc7"/>
      <stop offset=".87" stop-color="#c1d0ce"/>
      <stop offset="1" stop-color="#a7cdc7"/>
    </radialGradient>
  </defs>
  <g id="img">
    <g class="cls-1">
      <path class="cls-2" d="M340.26,305.81c-4.32,36.56-18.05,61.79-31.79,76.47-11.98,12.61-23.79,17.4-30.02,14.68-17.4-8.15-8.93-42.47.81-60.51,4.79-8.62,11.66-17.08,18.37-23.79,7.03-7.02,14.05-12.45,18.52-14.05,4.15-1.6,5.75-.96,5.27.48-.16,1.12-1.76,2.71-4.15,3.83-3.51,1.92-9.1,5.91-15.33,12.13-6.07,6.07-12.62,14.21-18.69,25.06-9.9,17.88-14.54,44.23-2.4,50.3,4.15,2.24,12.14-1.91,20.6-10.38,13.41-13.41,27.95-37.84,30.35-65.78,4.32-52.21-17.06-102.67-39.89-125.51-9.9-9.9-20.12-14.69-28.58-12.3-6.71,1.92-12.61,5.59-17.73,10.69-13.26,13.25-21.08,35.12-25.24,56.2,8.46,21.24,18.51,48.86,23.94,67.38,9.41,30.82,30.16,102.03,9.56,109.85-4.47,1.6-9.58-.32-14.53-5.27-14.69-14.69-29.21-55.73-30.48-109.38-.64-19.16,1.29-40.56,5.12-60.67-2.71-6.23-4.79-10.86-5.91-13.57-2.71-6.23-6.54-12.3-7.34-14.05-1.12-2.4-.64-5.11.96-6.07,1.44-1.12,3.51-.64,5.75,2.56,1.76,2.71,5.11,9.9,9.1,19.64,6.39-27.14,16.77-50.93,30.51-63.38,22.2-20.59,39.28-14.36,52.21-1.43,3.35,3.35,6.39,7.35,9.26,11.18,14.53,19.96,38.31,71.54,31.75,125.67ZM217.64,260.76c-3.2,31.93-4,69.14,8.76,113.84,4.63,15.81,10.37,27.62,15.96,33.21,3.03,3.04,6.07,4.15,8.78,3.04,12.3-5.91-.47-55.41-11-93.09-6.22-22.83-15-45.35-21.7-61.96-.32,1.6-.48,3.35-.8,4.95Z"/>
      <path class="cls-2" d="M453.53,197.12c-.98,7.31-7.21,28.66-13.18,43.68-4.96,11.98-17.36,34.57-32.61,44.26-4.38,2.79-9.06,4.69-13.94,4.58-7.71.08-13.57-3.68-17.69-10.16-6.66-10.48-8.27-28.18-4.35-47.26,5.25-25,18.72-48.01,30.73-55.64,2.86-1.82,5.7-2.82,8.26-2.57,10.32.67,3.56,31.71-2.93,47.6-5.03,12.29-13.01,24.58-22.23,33.65.97,4.47,2.38,8.38,4.44,11.62,2.91,4.57,6.85,7.42,12.05,7.59,4.19.28,8.11-1.14,11.73-3.44,11.05-7.02,18.55-23.02,21.86-31.28,4.44-11.11,10.48-32.34,12.34-42.89.4-4,2.06-5.59,3.31-5.31,1.44.16,2.58,2.38,2.2,5.56ZM385.2,222.61c-1.48,7.36-1.88,17.25-.64,26.36,6.86-7.3,12.64-16.32,18.12-29.17,6.35-15.27,11.82-39.08,6.52-40.26-5.85-1.63-18.84,19.19-24,43.07Z"/>
      <path class="cls-2" d="M503.2,208.72c-7.37,13.98-14.75,24.23-20.63,29.76-2.88,2.36-6.26,4.72-9.73,6.36-2.45,1.16-5.09,1.91-7.53,2.57-12.59,2.96-20.61-4.48-24.38-12.44-1.35-2.86-2.3-5.91-2.55-8.54-.84-8.1,2.52-14.19,6.69-15.41,1.6-4.01,3.95-10.12,6.63-17.13,2.25-6.32,7.98-19.02,8.71-24.86.15-2.32-.21-4.15-.87-6.58-.54-3.24-1.56-7.51-.41-14.05.61-5.04,3.35-10.33,8.09-9.83,5.04.61,6.06,9.62,5.46,14.16-.82,5.13-2.52,9.44-4.45,14.35.81,4.87,13.28,16.95,19.66,30.41,2.03,4.29,3.35,8.66,3.66,13.01.33,3.34.06,6.47-.5,9.48,3.45-5.38,7.97-13.77,11.03-19.97,4.65-9.7,11.36-26.12,13.85-34.05,1.32-5.12,6.72-2.69,5.11,1.83-1.3,4.11-6.79,19.96-17.84,40.93ZM464.4,176.39s-5.24,13.73-7.59,19.84c-1.29,3.61-4.17,10.72-6.3,16.23,3.28,2.7,3.58,7.55,2.11,10.25-.95,1.7-2.18,2.78-3.21,3.77-1.34,1.39-2.08,2.99-2.15,6.01.31,4.35,5.71,11.54,14.55,9.1,5.58-1.4,11.52-9.96,13.14-24.47,1.27-12.09-3.27-26.94-7.42-35.71-1.06-2.24-3.13-5.02-3.13-5.02Z"/>
      <path class="cls-2" d="M558.42,185.72c-5.74,8.77-19.97,30.64-31.99,33.26-11.59,2.47-16.42-6.36-17.37-13.69-1.3-10.33,5-29.6,8.35-39.67,4.82-14.67,15.57-39.62,17.71-43.02,1.11-1.6,7.82-4.96,6.96-2.01-1.38,5.53-6.96,24.79-11.27,43.59-4.44,19.09-6.34,30.56-4.43,39.23,1.37,7.18,5.14,6.32,9.42,2.87,6.95-5.37,15.32-18.19,20.01-25.86,4.83-7.96,15.34-26.83,17.35-33.3.94-2.73,7-3.22,4.77,2.61-2.76,7.7-13.49,26.65-19.5,35.99ZM549.03,89.08c-1.26,7.88-5.1,15.25-8.29,16.39s-4.66-4.33-3.19-12.29c1.26-7.88,5.1-15.25,8.29-16.39,3.19-1.14,4.67,4.33,3.2,12.29Z"/>
      <path class="cls-2" d="M653.29,164.32c-9.48,11.38-23.34,22.83-36.3,31.06-6.33,17.16-12.76,33.87-20.14,49.42-16.35,35.38-39.84,48.29-48.98,45.71-2.99-.95-5.18-3.47-6.02-7.21-2.13-9.47,2.61-26.5,14.97-43.63,16.31-22.18,34.85-34.44,49.42-43.73,3.57-13.99,5.85-24.46,5.8-24.67-6.34,10.91-17.43,25.44-27.88,27.32-8.25,1.39-15.14-3.54-17.42-13.68-1.98-8.81-.37-21.21,6.9-36.26,14.02-29.3,39.12-50.44,54.54-53.9,2.42-.54,4.5-.55,6.42-.28,4.58.82,6.3,4.37,6.6,7.77,2.39-3.78,4.27-6.74,5-7.6,1.29-1.45,8.37-3.96,7.15-1.14-12.01,30-22.37,62.18-33.25,93.09,11.15-8.06,23.45-18.22,29.99-26.17,10.43-12.29,21.63-29.39,25.24-35.98.46-1.03,2.45-1.48,3.7-1.06,1.2.19,1.89,1.2,1.13,2.99-3.21,8.36-15.2,24.01-26.88,37.97ZM564.65,239.53c-9.4,12.76-15.05,28.83-13.17,37.21.59,2.64,2.19,4.6,4.42,5.26,6.42,1.8,23.16-13.3,34.55-37.84,5.26-11.6,10.13-27.04,13.97-40.86-12.3,8.08-27.87,20.14-39.77,36.24ZM636.53,105.14c-.59-2.64-2.02-4.87-4.69-5.43-7.35-1.82-24.17,11.91-36.78,35.1-12.2,21.95-15.93,40.37-13.85,49.62.79,3.52,2.49,5.92,4.94,6.53,7.89,2.16,24.34-25.6,31.23-41.26,6.02-13.39,11.14-23.56,18.19-36.48,1.15-2.11,1.6-5.22.96-8.08Z"/>
      <path class="cls-2" d="M753.11,151.15c-15.37,13.3-28.82,24.88-39.63,25.63-7.9.33-16.53-3.37-17.85-12.56-1.7-11.42,7.26-22.46,16.59-31.49,19.74-18.81,33.93-35.87,27.7-40.87-5.03-3.95-15.03,1.96-24.48,9.18-10.73,8.45-23.49,20.2-31.24,32.29,0,0-28.8,47.74-30.59,48.09-2.43.85-8.64-.53-8.55-2.57.41-3.88,10.81-20.22,28.56-47.95,15.9-25.1,25.29-39.79,27.41-41.75,1.27-1.22,10.04-2.06,10.36-.72.08,1.13-2.95,6.32-8.44,15.3,5.96-5.4,23.07-19.72,36.53-18.17,6.84.65,9.84,4.75,10.22,10.15.47,6.76-3.42,15.86-9.22,23.51-14.1,18.42-25.78,35.98-26.48,45.31-.05,2.49,1.46,4.65,5.91,3.66,7.15-1.41,16.79-9.1,27.01-18.41,9.38-8.35,18.88-18.07,27.01-28.14,3.74-4.79,8.03-1.69,4.71,2.61-3.08,4.52-13.57,16.34-25.51,26.91Z"/>
      <path class="cls-2" d="M1085.63,84.29c-4.03,18.53-16.47,39.63-36.5,61.62-25.75,28.14-78.71,62.38-107.18,56.2-18.09-3.93-19.03-19.85-15.09-37.94,1.25-5.74,3.03-11.82,4.91-18.34-17.11,11.76-70.42,40.15-97.78,34.21-13.46-2.92-17.5-13.04-15.44-22.53,7.67-35.3,73.62-51.7,101.97-75.81,12.49-10.69,21.42-23.07,24.06-35.21,3.5-16.11-4.82-29.93-25.78-34.48-16.33-3.55-38.24-1.61-61.57,5.8-33.26,10.56-69.25,39.02-74.33,62.41-3.4,15.67,7.39,24.48,20.41,27.31,17.43,3.79,41.16-1.22,52.5-6.61,23.88-10.99,33.49-24.38,39.92-35.92,1.6-3.12,3.56-3.62,4.88-3.33,1.32.29,2.01,1.36,1.68,2.91-1.58,7.28-12.03,25.58-44.21,40.76-13.12,6.16-36.59,11-55.56,6.87-21.18-4.6-32.41-22.06-27.28-45.67,4.6-21.18,22.75-41.96,53.84-55.31,28.99-12.19,57.44-13.4,79.51-8.6,35.52,7.72,45.75,26.58,41.2,47.54-8.34,38.39-51.68,56.01-83.75,80.23-13.86,10.62-26.88,23.74-28.99,33.44-1.01,4.63.68,9.62,6.64,10.92,19.86,4.31,78.24-28.29,91.98-37.32,17.65-38.68,46.01-74.57,65.87-70.25,3.97.86,6.24,3.2,5.28,7.62-3.02,13.9-33.86,44.17-66.23,65.55-3.86,8.17-6.83,16.54-8.46,24.04-3.36,15.44-1.01,29.12,13.11,32.19,22.06,4.79,64.78-20.58,92.01-52.33,22.26-25.89,34.53-57.89,39.16-78.14,1.77-8.16,1.62-14.9,2.2-17.55.29-1.32.6-1.72,1.05-1.62,1.1.24,2.96,3.41,4.32,6.71,3.52,9.31,4.06,19.6,1.66,30.63ZM994.36,75.78c-8.38-1.82-28.89,17.06-48.92,54.99,29.49-20.86,49.71-43.73,51.43-51.67.24-1.1.16-1.81-.4-2.4-.57-.58-1.45-.78-2.11-.92Z"/>
      <path class="cls-2" d="M1105.36,252.9c-4.3-1.09-8.18-2.47-11.34-4.22-4.74-2.63-7.83-5.89-9.9-9.62-22.8,6.2-46.67,6.39-59.7-.84-9.67-5.37-11.54-13.63-6.72-22.32,4.05-7.31,12.67-14.92,25.47-21.25,28-14.16,65.15-17.83,82.92-7.97,9.48,5.26,11.35,13.52,6.53,22.21-4.05,7.31-12.56,14.72-25.47,21.25-5.06,2.61-10.72,4.9-16.47,6.88,1.69,3,3.51,5.3,7.07,7.28,2.37,1.31,5.35,2.45,9.56,3.24,11.32,2.41,31.29-3.81,36.23-5.73,4.63-1.82,6.43,3.31,2.83,4.67-3.9,1.45-26.51,10.08-41.01,6.43ZM1126.3,205.39c3.07-5.53,2.17-10.42-3.36-13.49-11.65-6.46-40.13-2.12-63.48,9.71-12.61,6.43-21,13.65-24.51,19.97-3.07,5.53-2.36,10.31,3.17,13.38,8.49,4.71,25.31,3.71,42.92-1.5-1.1-2.67-1.6-5.02-1.63-6.84-.05-5.96,4.09-10.64,9.99-11.5,4.58-.81,9.08.39,12.44,2.25,2.57,1.42,4.61,3.33,5.24,4.97,9.54-5.55,16.27-11.63,19.22-16.96Z"/>
      <path class="cls-2" d="M1173.49,305.03c-22,.61-39.96-2.23-51.03-10.05-8.55-5.91-12-12.21-9.53-17.71,4.34-9.46,17.36-12.06,28.6-12.32,15.58-.38,22.66,1.87,33.95,1.93,7.45.26,14.91-.6,17.09-4.61,2.24-4.82-1.62-9.45-4.17-15.06-1.52-2.85-1.78-5.88-1.78-5.88,0,0-18.54,4.65-27.31,6.5-7.19,1.64-22.42,4.54-29.15,4.82-7.05.33-7.29-4.96-2.01-5.2,7.05-.33,18.76-3.07,31.91-5.85,10.99-2.16,23.78-5.21,26.37-7.5.28-1.49.43-3.93,3.64-6.3,4.22-3.32,8.28-3.08,10.62-1.3,3.96,3,2.5,6.42-.18,9.21-2.86,2.65-7.6,3.3-7.6,3.3,0,0-.28,2.62,1.37,6.42,2.32,5.16,9.42,13.37,2.43,21.1-8.99,9.62-37.76,10.2-58.51,15.16-6.42,1.37-10.14,4.78-10.96,6.99-.23.68.26,1.9.8,2.31,4.36,4.72,23.31,8.88,44.4,8.71,14.63-.24,27.69-1.4,37.59-3.25,5.02-1.01,6.89,4.37,2.5,5.3-7.68,1.54-21.87,2.69-39.04,3.29Z"/>
      <path class="cls-2" d="M1252.34,380.02c-3.99-.51-48.81-6.14-54.27-22-1.72-4.96.08-9.26,2.97-12.11,2.09-2.06,4.98-3.31,7.37-3.45,8.3.07,14.7-.84,15.37-5.62.34-2.55-.45-3.68-2.34-6.25-4.93-1.8-9.07-3.75-12.24-6.33-3.33-2.74-3.3-6.57-.89-8.31,2.89-1.89,6.38,1.01,8.44,2.78,1.59,1.29,3.17,2.9,4.91,4.67,4.29,2.11,14.64,6.51,26.92,8.04,18.02,2.22,35.12.92,35-4.35.04-5.11-14.6-10.98-29.43-13.81-11.96-2.17-48.03-4.06-62.41-2.26,0,0-35.97,5.3-36.6,4.65-2.23-1.3-5.21-6.91-3.61-8.17,3.05-2.37,22.39-4.93,54.84-9.61,48.43-6.79,98.17-17.4,145.96-22.92,14.38-1.48,29.05,1.19,31.06,9.35.62,2.56-.36,4.79-2.61,7-9.33,9.18-39.88,14.84-59.2,14.85-22.83-.03-37.97-3.5-49.27-7.91-4,.77-17.11,2.89-42.37,6.84,8.61,1.03,19.15.79,32.54,4.42,12.27,3.45,25.15,9.46,31.64,16.06,2.85,2.9,4.42,5.78,4.24,8.82-.72,9.89-24.03,10.34-47.46,5.2-7.49-1.5-15.77-4.12-21.03-5.92,3.31,4.98,4.24,8.18,3.1,11.52-2.77,7.16-11.4,8.05-15.25,9.62-5.44,1.87-8.66,4.08-4.06,8.43,6.02,5.48,21.47,9.91,37.91,11.48,15.79,1.56,26.17,2.45,34.47,1.88,5.59-.11,7.79,4.05,1.71,5.28-6.24,1.39-31.44-1.37-35.43-1.88ZM1318.85,289.23c-10.88,2.15-22.23,4.45-33.74,6.59,9.87,3.27,24.39,4.83,37.32,5.09,22.35.18,52.91-8.03,51.37-14.43-1.69-8.16-40.87-.01-54.95,2.75Z"/>
      <path class="cls-2" d="M1284.84,434.09c-15.16-4.46-26.67-9.68-33.25-14.34-2.88-2.35-5.86-5.21-8.16-8.28-1.62-2.17-2.88-4.61-4-6.87-5.39-11.75.32-21.09,7.37-26.36,2.53-1.89,5.34-3.42,7.87-4.18,7.77-2.42,14.41-.33,16.43,3.51,4.24.78,10.7,1.87,18.1,3.11,6.64.96,20.22,4.06,26.09,3.62,2.3-.31,4.02-1.03,6.28-2.15,3.07-1.17,7.05-3.01,13.69-3.18,5.06-.4,10.79,1.24,11.23,5.98.4,5.06-8.24,7.84-12.8,8.15-5.19.21-9.75-.61-14.94-1.52-4.61,1.75-13.99,16.36-25.93,25.28-3.8,2.84-7.82,5-12.03,6.16-3.21.99-6.32,1.34-9.4,1.38,5.96,2.32,15.07,5.09,21.75,6.87,10.43,2.64,27.85,5.98,36.11,6.85,5.28.28,3.96,6.06-.78,5.37-4.29-.46-20.9-2.71-43.65-9.4ZM1308.87,389.66s-14.49-2.42-20.95-3.52c-3.79-.55-11.33-1.97-17.15-2.97-2,3.74-6.69,5-9.63,4.09-1.85-.59-3.16-1.59-4.33-2.4-1.62-1.04-3.34-1.45-6.32-.92-4.2,1.17-10.18,7.88-6.04,16.06,2.47,5.2,12.04,9.33,26.58,8.05,12.1-1.15,25.76-8.52,33.54-14.33,1.99-1.49,4.3-4.06,4.3-4.06Z"/>
      <path class="cls-2" d="M1341.42,520.13c-3.08-3.2-5.65-6.42-7.41-9.57-2.64-4.73-3.54-9.14-3.33-13.39-22.64-6.77-43.02-19.19-50.27-32.21-5.39-9.66-2.61-17.67,6.06-22.51,7.3-4.07,18.63-5.99,32.85-4.61,31.26,2.74,64.75,19.22,74.65,36.97,5.28,9.47,2.5,17.48-6.17,22.31-7.3,4.07-18.44,5.88-32.85,4.61-5.68-.45-11.69-1.5-17.62-2.85-.15,3.44.18,6.36,2.16,9.91,1.32,2.37,3.25,4.91,6.42,7.8,8.35,8.01,28.6,13.27,33.8,14.25,4.89.89,3.72,6.2-.06,5.46-4.08-.83-27.84-5.42-38.23-16.17ZM1384.28,490.81c5.52-3.08,7.34-7.71,4.26-13.23-6.49-11.64-32.98-22.98-59.06-25.24-14.1-1.18-25.05.52-31.36,4.04-5.52,3.08-7.45,7.51-4.37,13.03,4.73,8.48,19.54,16.51,37.25,21.37.48-2.85,1.29-5.11,2.23-6.67,3.11-5.09,9.09-6.88,14.56-4.5,4.32,1.73,7.51,5.12,9.38,8.47,1.43,2.56,2.16,5.26,1.83,6.99,11.03.31,19.96-1.3,25.28-4.27Z"/>
      <path class="cls-2" d="M1536.15,591.99c-17.66,6.93-66.72-5.59-94.33-14.16-40.47-12.26-69.38-27.83-83.69-38.95l-9.64-1.07c-.84.33-11.73,5.33-11.08,13.81.28,2.56.68,4.83,1.59,7.14,3.63,9.25,13.02,16.48,28.14,25.34,16.96,9.84,33.14,17.07,36.78,18.31,4.44,1.41,4.44,6.99-.79,5.4-7.41-2.19-31.14-14.46-40.04-20.43-7.64-5.25-27.53-16.36-32.34-30.48-3.46-10.04-1.35-17.66.47-21.05-31.85-3.27-63.1-7.5-93.22-10.71,0,0-12.91-14.34-14.93-18.88-.74-1.89-.44-2.98.4-3.31s2.14-.11,3.47.82c3.05,2.2,7.06,3.78,12.92,5.12,6.57,1.3,90.76,15.56,144.79,24.68,54.32,9.24,157.86,27.07,158.04,49.8-.07,4.15-2.35,6.99-6.55,8.64ZM1461.47,554.35c-22.94-5.31-47.95-9.08-78.03-12.79l-10.35-1.03c16.07,10.67,44.21,23.64,70.36,31.57,27.24,8.23,85.53,20.77,87.06,10.46,1.5-11.02-45.51-22.65-69.04-28.21Z"/>
      <path class="cls-2" d="M1471.15,848.15c-4.51,4.96-12.64,9.87-23.7,10.39-50.07,2.37-80.81-59.7-82.9-103.9-.62-13.08.55-36.19,17.69-37,10.6-.5,21.61,7.57,25.45,12.36,1.21,1.75,1.3,3.56.66,4.49-.86.95-1.99,1-3.63-.28-1.9-1.94-5.12-3.15-8.96-2.97-18.49.87-20.71,20.87-20.04,35.08,1.72,36.31,31.74,88.01,70.76,86.17,10.38-.49,17.62-5.13,21.47-9.61-3.18-5.05-5.92-10.57-8.24-16.56-2.82-7.1-4.28-14.04-4.57-20.13-.61-12.86,3.68-22.55,10.57-25.14,11.55-4.39,21.26,9.84,21.03,28.84-.32,12.45-4.09,23.48-10.02,31.89,10.46,10.81,22.59,18.82,37.3,24,4.37,1.6,9.39,2.5,14.12,2.27,13.53-.64,26.68-9.4,25.72-29.7-.17-3.61-.8-7.42-1.91-11.66-3.94-16.32-12.63-32.86-23.97-47.92-15.18-5.61-35.46-13.69-59.94-24.74-63.3-28.88-100.52-55.83-93.11-71.32,1.85-3.93,6.5-5.96,12.82-6.26,11.05-.52,27.09,4.14,42.58,11.32,24.28,11.51,57.9,34.11,89.93,71.02,4.06,4.56,7.67,9.13,11.04,13.49,12.41,4.39,22.27,7.31,26.85,8.45,3.88.72,5.29,2.01,5.81,3.34.56,2.23-2.72,4.65-4.76,4.52-1.59-.15-8.69-2.08-20.4-6.04,17.97,26.28,25.41,49.66,25.43,69.32.02,19.44-11.95,34.02-30.9,34.92-5.86.28-12.47-.77-19.37-3.38-18.18-6.83-31.89-19.51-42.81-35.27ZM1462.62,715.64c-19.17-13.33-53.75-32.5-70.22-31.72-3.61.17-6.49,1.44-7.96,3.77-6.94,10.95,31.19,33.34,67.08,51.53,20.38,10.34,46.65,20.85,68.27,28.87-19.89-23.92-43.87-43.36-57.18-52.45ZM1481.55,809.91c.36-11.54-5.66-19.4-11.73-18.66-5.39.71-9.08,8.79-8.6,18.94.21,4.51,1.14,9.67,3.4,14.53,2.02,4.43,4.93,8.58,8.29,12.72,5.1-6.8,8.28-16.21,8.64-27.53Z"/>
      <path class="cls-2" d="M1381.92,958.54c-4.37-8.82-15.34-30.55-13.39-42.59,1.73-9.55,9.2-12.79,16.09-11.54,2,.36,4.14,1.21,6.24,2.28-8.97-11.27-16.11-23.8-14.17-34.47,1.49-8.22,9.61-12.49,19.38-10.71,8.89,1.61,19.67,7.93,30.71,20.49,21.52,24.33,31.21,55.69,28.38,71.24-1.49,8.22-6.2,10.12-10.42,9.35-.67-.12-1.11-.2-1.55-.28,5.64,8.14,6.12,7.99,5.24,12.88-.24,1.33-.62,2.18-1.29,2.06-1.78-.32-18.45-18.49-32.77-31.88-15.5-14.51-25.07-22.45-33.96-24.06-3.33-.6-4.73.75-5.13,2.97-1.37,7.55,7.36,25.2,12.54,34.63,4.49,8.16,15.58,26.69,20.19,31.66.55.79.61,1.72.45,2.61-.24,1.33-1.11,2.32-2.44,2.08-.67-.12-1.7-.77-2.65-1.86-5.29-6.24-16.57-25.04-21.44-34.87ZM1442.34,956.88c3.55.64,7.21-.53,8.1-5.42,1.53-8.44-5.08-26.39-19.26-44.34-15.5-19.56-30.93-30.62-40.3-32.09-4.44-.81-8.1.37-8.7,3.7-1.57,8.67,15.62,31.52,26.59,43.15,9.98,10.76,17.36,19.44,26.51,30.97,1.5,1.88,4.4,3.55,7.07,4.04Z"/>
      <path class="cls-2" d="M1352.79,1052.05c-6.15-19.37-11.48-36.3-7.91-46.53,2.82-7.39,9.62-13.86,18.59-11.45,11.17,2.94,17.78,15.53,22.39,27.67,9.49,25.56,19.57,45.34,26.62,41.58,5.61-3.06,4.13-14.58,1.23-26.12-3.53-13.19-9.29-29.55-17.34-41.45,0,0-32.49-45.31-32.11-47.09.18-2.57,3.89-7.73,5.74-6.84,3.4,1.9,14.31,17.91,32.78,45.17,16.79,24.52,26.58,38.94,27.55,41.67.62,1.65-2.07,10.04-3.42,9.81-1.07-.37-4.64-5.21-10.73-13.79,2.61,7.61,9.02,28.98,2.28,40.74-3.3,6.02-8.24,7.17-13.36,5.38-6.4-2.23-13.22-9.4-17.96-17.75-11.35-20.23-22.89-37.89-31.18-42.22-2.27-1.03-4.85-.5-5.7,3.99-1.53,7.12,1.73,19.02,6.26,32.08,3.97,11.91,9.15,24.48,15.2,35.92,2.92,5.33-1.61,8.05-4.26,3.3-2.93-4.61-9.66-18.92-14.66-34.06Z"/>
      <path class="cls-2" d="M1309.18,1136.65c-3.23-20.06-6.01-37.59-.96-47.19,3.88-6.89,11.56-12.29,20.07-8.58,10.61,4.56,15.29,17.98,18.07,30.67,5.62,26.68,12.67,47.73,20.2,45.05,6-2.2,6.24-13.81,5.06-25.65-1.54-13.57-4.84-30.6-11.04-43.55,0,0-25.46-49.6-24.82-51.3.56-2.51,4.99-7.07,6.69-5.92,3.08,2.39,11.52,19.83,25.76,49.51,12.99,26.72,20.55,42.43,21.1,45.27.37,1.72-3.53,9.62-4.83,9.19-1-.53-3.82-5.83-8.58-15.22,1.46,7.91,4.65,29.99-3.75,40.63-4.15,5.47-9.21,5.87-14.01,3.35-6-3.15-11.69-11.25-15.15-20.2-8.25-21.68-17.05-40.85-24.62-46.35-2.09-1.36-4.72-1.21-6.22,3.11-2.56,6.82-1.09,19.07,1.46,32.65,2.17,12.37,5.44,25.56,9.74,37.77,2.11,5.7-2.78,7.72-4.7,2.63-2.22-4.99-6.76-20.13-9.48-35.84Z"/>
      <path class="cls-2" d="M1260.86,1245.14c-1.79-7.15-3.89-29.29-3.89-45.46.18-12.97,3.36-38.54,13.95-53.17,3.04-4.21,6.69-7.7,11.27-9.41,7.13-2.92,13.97-1.59,20.19,2.91,10.06,7.28,18.1,23.13,21.5,42.31,4.36,25.17.34,51.53-8,63.05-1.99,2.74-4.25,4.72-6.73,5.44-9.84,3.19-15.02-28.15-14.87-45.32.13-13.28,3-27.65,8.22-39.48-2.55-3.8-5.31-6.91-8.42-9.16-4.39-3.18-9.11-4.36-14-2.61-4,1.29-7.11,4.05-9.63,7.53-7.68,10.61-8.73,28.24-8.76,37.14-.02,11.97,2.21,33.93,4.37,44.41,1.1,3.87.15,5.96-1.11,6.16-1.39.38-3.27-1.25-4.09-4.36ZM1314.95,1196.2c-1.35-7.38-4.62-16.72-9.14-24.73-3.68,9.32-5.71,19.83-6.06,33.8-.26,16.54,3.45,40.68,8.81,39.82,6.04-.65,10.42-24.79,6.39-48.89Z"/>
      <path class="cls-2" d="M1201.24,1267.77c1.8-21.93,6.6-39.47,15.59-49.62,6.82-7.85,13.45-10.59,18.64-7.53,8.93,5.35,10.09,18.57,9.11,29.78-1.34,15.53-4.35,22.32-5.64,33.54-1.08,7.38-1.04,14.88,2.71,17.5,4.55,2.75,9.57-.58,15.43-2.49,3-1.2,6.04-1.12,6.04-1.12,0,0-2.59-18.94-3.47-27.86-.84-7.33-2.05-22.79-1.6-29.51.45-7.04,5.73-6.7,5.39-1.42-.45,7.04.99,18.98,2.31,32.36.94,11.16,2.57,24.21,4.56,27.03,1.45.44,3.86.85,5.87,4.31,2.84,4.56,2.15,8.57.13,10.7-3.42,3.61-6.66,1.78-9.14-1.19-2.32-3.13-2.45-7.92-2.45-7.92,0,0-2.57-.57-6.53.66-5.38,1.74-14.32,7.89-21.24.1-8.58-9.99-6-38.65-8.65-59.82-.66-6.53-3.64-10.6-5.75-11.66-.65-.3-1.92.05-2.38.54-5.17,3.81-11.38,22.19-13.53,43.17-1.36,14.57-1.65,27.68-.9,37.72.46,5.1-5.1,6.37-5.54,1.91-.69-7.81-.28-22.03,1.02-39.16Z"/>
      <path class="cls-2" d="M986.12,1581.35c-6.16-12.06.54-43.12,8.78-58.75,8.54-16.54,18.44-27.43,31.09-36.42,1.66-30.01,2.86-54.96,13.1-85.04-24.5-6.76-49.87-10.27-76.42,2.28-11.77,5.76-19.57,13.8-21.46,18.06-1.39,2.74-2.79,3.96-3.9,4.27-1.31.42-2.23-.89-1.64-3.22.87-4.25,5.75-23.48,29.09-34.38,20.62-9.77,46.11-5.04,76.9,6.1,11.75-30.6,30.8-57.83,57.13-72.8,31.65-17.95,62-11.64,72.79,9.47,1.03,2.01,1.96,4.33,2.58,6.54,8.43,29.41-12.04,56.35-37.57,69.4-4.62,2.36-9.76,4.22-14.59,5.68-27.6,7.51-53.13-1.76-70.45-7.37-10.28,25.54-11.6,48.27-14.81,74.25,2.71-1.64,5.73-3.18,8.75-4.72,3.42-1.75,5.14-.85,5.46.76.52,1.51-.67,3.64-3.29,4.98-3.72,1.65-7.54,3.6-11.86,6.06-2.75,20.93-7.06,47.22-14.56,67.79-4.74,12.56-13.2,26.27-21.85,30.69-2.41,1.23-4.93,1.76-7.46,1.28-2.53-.48-4.46-2.28-5.8-4.9ZM1015.47,1553.93c7.18-22.18,9.15-40.17,10.28-60.78-9.43,6.85-18.44,16.01-25.1,28.29-14.61,26.99-12.64,56.66-4.36,56.49,6.66-.36,14.17-8,19.18-24ZM1123.86,1406.27c3.93-1.25,7.45-2.79,10.87-4.54,25.14-12.84,40.27-37.81,32.8-60.37-5.6-16.92-26.46-23-51.79-10.05-3.02,1.54-6.13,3.39-9.34,5.53-24.7,16.67-41.48,38.43-52.18,62.15,18.74,6.91,45.98,15.05,69.64,7.28Z"/>
      <path class="cls-2" d="M834.1,1439.59c6.66-7.25,22.97-25.31,34.91-27.83,9.54-1.82,15.24,3.98,16.56,10.86.38,2,.36,4.3.12,6.64,7.28-12.43,16.41-23.6,27.05-25.63,8.21-1.57,15.11,4.47,16.97,14.22,1.7,8.87-.31,21.21-8.05,36.02-14.94,28.84-40.71,49.17-56.23,52.14-8.21,1.57-11.67-2.13-12.48-6.35-.13-.67-.21-1.11-.3-1.55-5.56,8.19-5.25,8.59-10.13,9.52-1.33.25-2.26.2-2.39-.46-.34-1.77,10.61-23.87,17.93-42.05,7.96-19.68,11.91-31.47,10.21-40.34-.64-3.33-2.4-4.14-4.62-3.71-7.54,1.44-20.86,15.94-27.79,24.17-5.99,7.12-19.29,24.15-22.26,30.24-.54.79-1.38,1.18-2.27,1.35-1.33.25-2.57-.2-2.82-1.53-.13-.67.1-1.86.78-3.14,3.91-7.18,17.39-24.47,24.81-32.56ZM857.41,1495.36c.68,3.55,3.09,6.54,7.97,5.6,8.43-1.61,22.79-14.24,34.43-33.94,12.67-21.5,17.43-39.88,15.42-49.16-.85-4.44-3.26-7.42-6.58-6.79-8.65,1.65-23.78,25.93-30.67,40.35-6.44,13.19-11.89,23.19-19.34,35.88-1.21,2.07-1.73,5.39-1.22,8.05Z"/>
      <path class="cls-2" d="M736.34,1446.2c15.83-12.74,29.69-23.83,40.52-24.19,7.91-.04,16.4,3.96,17.39,13.19,1.29,11.48-8.06,22.19-17.7,30.87-20.4,18.09-35.2,34.63-29.15,39.85,4.88,4.13,15.09-1.42,24.8-8.3,11.02-8.05,24.19-19.35,32.38-31.15,0,0,30.5-46.67,32.29-46.96,2.46-.76,8.61.84,8.46,2.88-.55,3.86-11.53,19.82-30.26,46.89-16.79,24.52-26.7,38.86-28.89,40.74-1.32,1.17-10.11,1.7-10.38.35-.04-1.13,3.18-6.21,8.98-14.99-6.15,5.18-23.76,18.88-37.16,16.85-6.81-.9-9.66-5.09-9.85-10.51-.23-6.77,3.98-15.72,10.06-23.16,14.76-17.9,27.05-35.03,28.09-44.33.14-2.49-1.29-4.7-5.78-3.87-7.19,1.15-17.11,8.49-27.65,17.43-9.67,8.01-19.52,17.38-28,27.16-3.91,4.65-8.09,1.4-4.61-2.78,3.24-4.4,14.15-15.84,26.45-25.97Z"/>
      <path class="cls-2" d="M544.97,1579.54c1.51-12.55,19.66-34.93,36.77-52.44,11.93-12.21,43.27-40.29,70.33-62.96,9.79-13.38,18.22-26.69,19.16-34.54.35-2.92-.47-5.52-3.16-5.84-13.9-1.67-58.63,31.84-64.21,36.63-.78.82-1.7.93-2.6.83-1.12-.13-2.13-1.17-1.97-2.51.46-3.81,21.03-17.94,34.21-25.45,7.09-4.15,28.79-18.15,42.91-16.45,8.74,1.05,12.59,8.79,11.81,15.29-.16,1.34-.57,2.89-.96,4.21,15.63-10.86,25.27-15.38,32.45-14.52,4.48.54,14.3,3.99,12.47,19.24-1.02,8.52-6.57,20.59-22.93,35.68-24.84,23.17-52.98,30.25-65.99,28.69-2.91-.35-4.88-1.04-6.12-2.1-12.56,15.55-26.42,32.53-35.25,43.52-14.45,18.05-35.75,43.92-49.43,42.27-2.02-.24-3.53-.88-5.19-2.22-1.86-1.59-2.68-4.19-2.3-7.33ZM554.08,1581.31c10.76,1.29,56.74-65.28,70.35-82.06,2.95-3.74,7.46-9.11,12.03-14.93-17.74,15.15-37.12,32.61-49.8,45.41-15.05,15.48-33.53,38.73-34.64,47.92-.19,1.57.12,2.74.97,3.3.42.28.65.3,1.09.36ZM645.67,1500.44c19.28,2.32,69.5-37.13,72.71-63.81.46-3.81-.6-8.26-4.41-8.72-6.5-.78-20.29,9.84-32.42,19.98-5.56,8.43-13.36,16.59-18.21,22.83-4.31,5.62-12.83,15.97-22.44,27.78,1.69,1.11,2.75,1.7,4.77,1.94Z"/>
      <path class="cls-2" d="M533.85,1503.97c5.43-5.85,12.72-9.84,16-9.02,3.29.82,1.47,6.19-4.17,11.99-5.43,5.85-12.72,9.84-16,9.02-3.28-.83-1.47-6.19,4.17-11.99ZM579.78,1418.43c9.64-4.1,33.64-14.37,45.08-9.87,11,4.39,10.12,14.41,6.82,21.04-4.66,9.3-20.61,21.83-29,28.34-12.17,9.52-34.96,24.28-38.64,25.92-1.81.71-9.25-.23-6.9-2.2,4.22-3.83,19.57-16.74,33.6-29.98,14.31-13.4,22.26-21.88,25.5-30.15,2.85-6.73-.76-8.11-6.23-7.62-8.76.59-22.84,6.6-31.01,10.37-8.44,3.93-27.67,13.77-32.93,18.04-2.3,1.75-7.61-1.21-2.51-4.82,6.58-4.87,26.03-14.65,36.22-19.07Z"/>
      <path class="cls-2" d="M486.33,1387.69c19.54-5.59,36.61-10.43,46.74-6.57,7.3,3.03,13.58,10.02,10.91,18.91-3.26,11.08-16.04,17.32-28.3,21.58-25.82,8.75-45.88,18.25-42.33,25.41,2.9,5.7,14.46,4.55,26.07,1.98,13.29-3.15,29.81-8.44,41.93-16.14,0,0,46.22-31.18,47.99-30.74,2.56.25,7.61,4.11,6.68,5.93-2,3.34-18.32,13.79-46.09,31.47-24.99,16.08-39.69,25.45-42.44,26.34-1.67.57-9.98-2.36-9.7-3.7.4-1.05,5.34-4.49,14.09-10.33-7.68,2.39-29.23,8.18-40.79,1.11-5.93-3.47-6.93-8.45-4.99-13.51,2.42-6.33,9.78-12.95,18.26-17.44,20.55-10.77,38.53-21.79,43.1-29.95,1.1-2.24.64-4.83-3.82-5.81-7.07-1.73-19.06,1.18-32.25,5.33-12.02,3.63-24.73,8.44-36.34,14.16-5.41,2.77-8-1.84-3.17-4.35,4.69-2.8,19.19-9.11,34.46-13.67Z"/>
      <path class="cls-2" d="M406.27,1337.89c14.67-2.06,32.62-1.21,47.75,1.41,16.22-8.45,32.22-16.5,48.13-23.04,35.89-15.19,61.95-8.96,66.99-.91,1.58,2.71,1.5,6.04-.39,9.38-4.79,8.44-19.75,17.87-40.41,22.24-26.98,5.45-48.95,2.07-65.98-.85-12.05,7.96-20.77,14.17-20.88,14.37,12.03-3.81,30-7.11,39.01-1.48,7.04,4.52,8.83,12.8,3.7,21.83-4.46,7.85-13.99,15.95-29.48,22.21-30.07,12.27-62.87,11.04-76.62,3.24-2.16-1.23-3.7-2.62-4.94-4.1-2.84-3.69-1.73-7.47.34-10.19-4.31,1.19-7.7,2.12-8.82,2.26-1.93.2-8.86-2.69-6.06-3.96,29.06-14.14,58.36-31,87.19-46.56-13.67-1.53-29.61-2.27-39.8-.79-15.99,2.09-35.77,7.21-42.88,9.67-1.04.45-2.8-.55-3.45-1.7-.76-.95-.59-2.15,1.17-2.97,8-4.03,27.4-7.55,45.43-10.04ZM378.9,1392.97c-1.34,2.36-1.78,4.96-.18,7.17,4.22,6.29,25.9,7.43,50.83-1.26,23.78-8.05,38.93-19.18,43.61-27.43,1.78-3.14,2.14-6.06.73-8.15-4.39-6.91-35.22,2.59-50.86,9.55-13.45,5.86-24.09,9.95-37.99,14.78-2.27.79-4.7,2.79-6.15,5.34ZM522.45,1341.8c15.53-3.12,30.52-11.23,34.76-18.69,1.34-2.36,1.47-4.88.26-6.86-3.54-5.65-26.09-5.72-51.01,4.79-11.69,5.05-25.67,13.21-37.81,20.86,14.54,2.28,34.18,3.83,53.8-.09Z"/>
      <path class="cls-2" d="M116.47,1251.78c16.33-16.56,49.96-23.99,76.53-15.88,18.88,5.61,33.96,15.4,44.09,25.39,15.44,15.22,19.22,30.04,12.24,37.11-10.62,10.77-30.97.86-39.65-7.7-8.52-8.4-14.2-20.33-11.5-23.07.79-.8,2.07-.17,3.36,1.09.64.63,1.29,1.59,1.78,2.7,1.96,5.42,5.35,10.66,9.85,15.1,9.33,9.19,24.53,14.35,31.35,7.44,4.76-4.83,1.32-16.14-10.42-27.71-9.01-8.88-22.48-17.4-39.6-22.23-21.6-6.07-47.27-1.25-59.95,11.61-13.31,13.51-8.87,31.84,4.64,45.15,15.12,14.9,40.26,25.42,55.93,28.5,21.17-8.62,48.88-18.71,67.2-24.43,28.83-8.99,92.88-28.29,107.52-13.87,4.99,4.91,3.44,11.63-2.75,17.9-19.18,19.46-89.59,41.36-170.01,26.77-27.54,12.17-29.42,16.66-33.12,13.01-1.29-1.27-1.62-2.86.44-4.95,1.11-1.13,8.11-5.01,21.16-10.53-19.35-4.49-49.61-15.93-66.5-32.57-5.95-5.87-10.31-12.38-11.8-19.55-2.32-11.48,1.44-21.41,9.21-29.29ZM212.53,1331.88c31.96,2.96,69.32,3.65,113.77-9.6,15.77-4.74,27.55-10.58,33.09-16.21,3.65-3.7,4.9-7.54,2-10.39-9.65-9.51-56.02,3.12-92.03,13.28-22.79,6.39-45.24,15.34-61.79,22.16,1.6.31,3.36.46,4.96.76Z"/>
      <path class="cls-2" d="M212.29,1145.97c9.42,2.85,32.78,9.71,40.22,19.36,5.78,7.8,3.03,15.46-2.59,19.63-1.63,1.21-3.72,2.19-5.93,2.99,14.35,1.16,28.38,4.53,34.84,13.24,4.98,6.71,2.54,15.55-5.44,21.47-7.25,5.38-19.24,8.93-35.95,8.39-32.47-.94-61.97-15.33-71.38-28.02-4.98-6.71-3.15-11.44.3-14,.54-.4.91-.67,1.27-.94-9.79-1.45-10.02-1-12.98-4.99-.81-1.09-1.16-1.95-.62-2.35,1.45-1.08,26.11-.81,45.67-2.1,21.19-1.38,33.52-2.94,40.78-8.32,2.72-2.02,2.69-3.96,1.34-5.77-4.57-6.17-23.42-11.87-33.84-14.54-9.02-2.31-30.13-6.89-36.9-6.93-.95-.14-1.67-.73-2.21-1.46-.81-1.09-.94-2.4.15-3.21.54-.4,1.72-.71,3.16-.66,8.17.41,29.6,5.04,40.1,8.21ZM172.17,1191.18c-2.9,2.15-4.55,5.62-1.59,9.61,5.11,6.89,22.73,14.35,45.52,16.28,24.87,2.08,43.5-1.62,50.98-7.45,3.63-2.69,5.27-6.16,3.25-8.88-5.25-7.07-33.68-10.16-49.67-10.11-14.68-.08-26.05-.64-40.73-1.85-2.39-.19-5.6.78-7.78,2.4Z"/>
      <path class="cls-2" d="M168.71,1059.39c13.43,6.26,28.03,16.74,39.29,27.18,18.2,1.75,36.01,3.7,52.92,6.88,38.38,6.79,56.85,26.21,56.69,35.7-.15,3.13-2.03,5.89-5.44,7.66-8.62,4.47-26.29,4.23-46-3.34-25.6-10.12-42.19-24.91-54.89-36.64-14.44.12-25.14.58-25.34.69,12.17,3.35,29.04,10.37,33.53,19.99,3.45,7.62.44,15.55-8.78,20.33-8.02,4.16-20.41,5.76-36.82,2.58-31.9-6.08-58.75-24.97-66.03-38.99-1.14-2.2-1.68-4.22-1.91-6.13-.37-4.64,2.62-7.21,5.83-8.37-4.26-1.35-7.61-2.41-8.63-2.9-1.73-.88-5.96-7.08-2.93-6.62,32.07,3.96,65.83,5.77,98.49,8.41-10.64-8.73-23.6-18.02-32.96-22.33-14.55-6.95-33.93-13.42-41.23-15.23-1.11-.19-2.05-1.99-1.97-3.3-.12-1.21.67-2.13,2.6-1.86,8.9.98,27.09,8.58,43.57,16.31ZM115.76,1090.69c-2.4,1.25-4.19,3.19-4.05,5.92.11,7.57,17.68,20.33,43.32,26.61,24.33,6.2,43.1,5.11,51.52.74,3.21-1.66,5.09-3.91,5.05-6.44.08-8.18-30.96-17-47.86-19.68-14.48-2.41-25.62-4.76-39.92-8.28-2.33-.57-5.46-.22-8.06,1.13ZM264.04,1125.92c14.73,5.84,31.72,7.2,39.33,3.24,2.4-1.25,3.89-3.29,3.95-5.61.1-6.67-18.77-19.01-45.4-23.75-12.56-2.13-28.73-2.9-43.07-3.08,10.95,9.83,26.59,21.82,45.18,29.21Z"/>
      <path class="cls-2" d="M100.92,954.17c6.88,2.65,26.19,13.67,39.42,22.97,10.5,7.61,29.59,24.92,35.46,42,1.69,4.91,2.45,9.9,1.21,14.63-1.71,7.51-6.74,12.35-14,14.84-11.74,4.04-29.33,1.5-46.98-6.76-23.1-10.92-42.34-29.37-46.97-42.82-1.1-3.2-1.42-6.2-.58-8.63,3.05-9.88,31.67,3.91,45.62,13.92,10.79,7.75,20.88,18.37,27.56,29.44,4.57.1,8.71-.37,12.34-1.62,5.12-1.76,8.81-4.94,10.19-9.95,1.25-4.01.78-8.15-.62-12.21-4.26-12.38-18.08-23.39-25.34-28.53-9.78-6.9-29.02-17.72-38.84-21.98-3.8-1.32-4.96-3.31-4.4-4.46.49-1.36,2.91-1.96,5.92-.84ZM109.83,1026.57c6.81,3.15,16.34,5.84,25.49,6.75-5.51-8.37-12.94-16.09-24.16-24.4-13.38-9.73-35.26-20.58-37.64-15.71-2.95,5.31,14.29,22.79,36.31,33.36Z"/>
      <path class="cls-2" d="M111.15,790.52c6.3,7.56,22.04,26.13,22.94,38.29.54,9.69-5.97,14.58-12.96,14.97-2.03.11-4.31-.21-6.6-.76,11.35,8.87,21.21,19.4,21.81,30.22.47,8.34-6.43,14.38-16.35,14.93-9.02.5-20.98-3.13-34.64-12.77-26.6-18.64-43.33-46.88-44.21-62.66-.47-8.34,3.67-11.29,7.95-11.53.68-.04,1.13-.06,1.58-.09-7.38-6.6-7.82-6.35-8.09-11.31-.08-1.35.1-2.27.78-2.3,1.8-.1,22.25,13.68,39.3,23.36,18.45,10.5,29.61,15.99,38.63,15.48,3.38-.19,4.42-1.83,4.29-4.08-.43-7.67-13.03-22.79-20.26-30.76-6.26-6.89-21.37-22.33-27.01-26.08-.71-.64-.99-1.53-1.04-2.43-.08-1.35.54-2.52,1.89-2.59.68-.04,1.83.35,3.01,1.19,6.6,4.83,21.95,20.48,28.98,28.91ZM52.77,806.22c-3.61.2-6.89,2.19-6.61,7.15.48,8.57,11.09,24.48,29.07,38.63,19.63,15.41,37.22,22.57,46.67,21.82,4.51-.25,7.79-2.24,7.6-5.63-.49-8.79-22.54-27.01-35.92-35.76-12.21-8.14-21.41-14.86-33-23.94-1.89-1.48-5.11-2.43-7.82-2.28Z"/>
      <path class="cls-2" d="M117.4,692.76c10.55,17.37,19.72,32.56,18.66,43.35-1,7.84-6.08,15.74-15.36,15.51-11.55-.23-20.94-10.9-28.28-21.6-15.25-22.59-29.71-39.44-35.68-34.13-4.73,4.3-.58,15.14,4.97,25.67,6.54,11.99,16,26.53,26.63,36.19,0,0,42.26,36.36,42.31,38.18.43,2.54-1.96,8.43-3.96,8.01-3.75-1.05-18.14-14.03-42.51-36.16-22.1-19.86-35.02-31.57-36.6-33.99-.99-1.46-.36-10.24,1.01-10.34,1.12.11,5.74,3.97,13.68,10.87-4.33-6.78-15.6-26.03-11.83-39.05,1.78-6.63,6.32-8.91,11.71-8.38,6.74.66,15.06,6.01,21.64,13.01,15.8,16.98,31.18,31.42,40.26,33.67,2.45.47,4.83-.66,4.6-5.22-.19-7.28-6.17-18.07-13.65-29.7-6.67-10.64-14.67-21.63-23.25-31.32-4.1-4.49-.33-8.2,3.36-4.21,3.94,3.79,13.85,16.11,22.28,29.64Z"/>
      <path class="cls-2" d="M10.81,485.28c12.24,3.17,32,24.15,47.06,43.45,10.51,13.45,34.14,48.27,53,78.11,11.95,11.49,24.02,21.62,31.67,23.6,2.84.74,5.53.27,6.21-2.36,3.51-13.55-23.73-62.36-27.73-68.53-.7-.88-.7-1.81-.47-2.69.28-1.09,1.44-1.96,2.75-1.62,3.72.96,14.97,23.24,20.66,37.31,3.17,7.58,14.14,30.96,10.57,44.73-2.21,8.52-10.39,11.3-16.73,9.66-1.31-.34-2.78-.96-4.04-1.51,8.67,16.94,11.87,27.1,10.06,34.1-1.13,4.37-5.87,13.64-20.73,9.79-8.31-2.15-19.53-9.26-32.3-27.5-19.64-27.72-22.9-56.55-19.62-69.23.74-2.84,1.68-4.7,2.9-5.78-13.73-14.52-28.71-30.53-38.43-40.75-15.96-16.73-38.75-41.3-35.29-54.63.51-1.97,1.34-3.38,2.89-4.85,1.82-1.63,4.51-2.1,7.57-1.3ZM7.83,494.08c-2.72,10.49,57.11,64.95,71.93,80.69,3.31,3.42,8.03,8.61,13.19,13.91-12.65-19.61-27.36-41.15-38.35-55.42-13.33-16.98-33.9-38.41-42.86-40.73-1.53-.4-2.74-.24-3.4.52-.33.38-.39.6-.5,1.04ZM75.75,595.65c-4.87,18.8,27.52,73.84,53.53,80.58,3.72.96,8.27.51,9.23-3.21,1.64-6.34-7.05-21.42-15.47-34.8-7.61-6.64-14.65-15.46-20.19-21.09-5-5.03-14.11-14.85-24.53-25.95-1.33,1.52-2.05,2.5-2.56,4.47Z"/>
    </g>
  </g>
</svg>